STARTFONT 2.1
COMMENT
COMMENT Converted from OpenType font "FreeUniversal-Regular.ttf" by "otf2bdf 3.0".
COMMENT
FONT -FreeType-FreeUniversal-Medium-R-Normal--48-480-72-72-P-226-ISO10646-1
SIZE 48 72 72
FONTBOUNDINGBOX 65 64 -4 -13
STARTPROPERTIES 19
FOUNDRY "FreeType"
FAMILY_NAME "FreeUniversal"
WEIGHT_NAME "Medium"
SLANT "R"
SETWIDTH_NAME "Normal"
ADD_STYLE_NAME ""
PIXEL_SIZE 48
POINT_SIZE 480
RESOLUTION_X 72
RESOLUTION_Y 72
SPACING "P"
AVERAGE_WIDTH 226
CHARSET_REGISTRY "ISO10646"
CHARSET_ENCODING "1"
FONT_ASCENT 49
FONT_DESCENT 12
COPYRIGHT "(FreeUniversal) Copyright (c) Stephen Wilson 2009    a modification of:    Original Font (SIL Sophia)  Copyright (c) SIL International, 1994-2008.    "
_OTF_FONTFILE "FreeUniversal-Regular.ttf"
_OTF_PSNAME "FreeUniversal-Regular"
ENDPROPERTIES
CHARS 243
STARTCHAR 0020
ENCODING 32
SWIDTH 291 0
DWIDTH 14 0
BBX 0 0 0 0
BITMAP
ENDCHAR
STARTCHAR 0021
ENCODING 33
SWIDTH 375 0
DWIDTH 18 0
BBX 5 35 6 0
BITMAP
F8
F8
F8
F8
F8
F8
F8
F8
F8
F8
F8
F8
F8
F8
F8
F8
F8
F8
F8
F8
F8
F8
F8
F8
F8
F8
F8
00
00
00
F8
F8
F8
F8
F8
ENDCHAR
STARTCHAR 0022
ENCODING 34
SWIDTH 458 0
DWIDTH 22 0
BBX 15 14 3 21
BITMAP
F83E
F83E
783E
781E
781E
781E
781E
781E
781E
781E
781E
781C
701C
701C
ENDCHAR
STARTCHAR 0023
ENCODING 35
SWIDTH 750 0
DWIDTH 36 0
BBX 30 35 3 0
BITMAP
000781E0
000701C0
000703C0
000F03C0
000F0380
000E0780
001E0780
001E0700
001C0700
003C0F00
1FFFFFFC
1FFFFFFC
1FFFFFFC
00781C00
00701C00
00703C00
00F03C00
00E03800
00E07800
01E07800
FFFFFFE0
FFFFFFE0
FFFFFFE0
03C0E000
0380E000
0381E000
0781E000
0781C000
0703C000
0F03C000
0F038000
0E038000
1E078000
1E078000
1C070000
ENDCHAR
STARTCHAR 0024
ENCODING 36
SWIDTH 562 0
DWIDTH 27 0
BBX 24 44 2 -5
BITMAP
001800
001800
001800
001800
01FF00
07FFE0
1FFFF0
3FFFF0
3E18F8
7C1878
78187C
78187C
F8187C
F81800
781800
781800
7C1800
7F1800
3FF800
3FFF00
0FFFE0
07FFF0
00FFF8
001BFC
00187E
00183E
00183E
00181E
00181E
F8181F
F8181E
F8181E
F8181E
7C183E
7E187E
3FFFFC
1FFFF8
0FFFF0
07FFC0
001800
001800
001800
001800
001800
ENDCHAR
STARTCHAR 0025
ENCODING 37
SWIDTH 916 0
DWIDTH 44 0
BBX 40 36 2 0
BITMAP
0000000700
03F0000E00
1FFC001E00
3FFE001C00
7E1F003C00
7C0F803800
F80F807000
F807807000
F80780E000
F80780E000
F80781C000
F80783C000
F807838000
F80F870000
780F870000
7E1F0E0000
3FFE0E0000
1FFC1C0FC0
07F03C3FF0
0000387FFC
000078F87C
000071F03E
0000E1F01E
0000E1E01F
0001C1E01F
0001C1E01F
000383E01F
000781E01F
000701E01F
000F01E01F
000E01F01E
001C01F03E
001C00F87C
0038007FFC
0038003FF0
0070000FC0
ENDCHAR
STARTCHAR 0026
ENCODING 38
SWIDTH 770 0
DWIDTH 37 0
BBX 32 35 3 1
BITMAP
00FF8000
03FFE000
07FFF000
0FC0F000
0F807800
0F007800
0F007800
0F007800
0F80F000
0F81F000
07C3E000
07EFC000
03FF8000
01FE0000
03FC01F0
07FC01F0
1FFE01F0
3F3F01F0
3E1F81F0
7C0FC1F0
7C07E1F0
F807F1F0
F803F1E0
F801F9E0
F800FDE0
F8007FE0
F8003FC0
F8001FC0
7C000FC0
7E001FE0
3F007FF0
3FFFFFF8
1FFFFCFC
07FFF07E
01FFC03F
ENDCHAR
STARTCHAR 0027
ENCODING 39
SWIDTH 375 0
DWIDTH 18 0
BBX 5 14 6 21
BITMAP
F8
F8
F8
78
78
78
78
78
78
78
78
70
70
70
ENDCHAR
STARTCHAR 0028
ENCODING 40
SWIDTH 354 0
DWIDTH 17 0
BBX 8 42 4 -6
BITMAP
07
07
0F
0E
1E
1E
3C
3C
3C
3C
7C
78
78
78
F8
F8
F8
F8
F8
F8
F8
F8
F8
F8
F8
F8
F8
F8
78
78
78
7C
3C
3C
3C
3C
1E
1E
0E
0F
07
07
ENDCHAR
STARTCHAR 0029
ENCODING 41
SWIDTH 354 0
DWIDTH 17 0
BBX 8 42 4 -6
BITMAP
E0
70
70
78
78
3C
3C
3C
1E
1E
1E
1E
1F
1F
0F
0F
0F
0F
0F
0F
0F
0F
0F
0F
0F
0F
0F
0F
1F
1F
1E
1E
1E
3E
3C
3C
3C
78
78
70
70
E0
ENDCHAR
STARTCHAR 002A
ENCODING 42
SWIDTH 645 0
DWIDTH 31 0
BBX 19 19 6 16
BITMAP
060C00
1E0F00
0F1E00
0F1E00
071C00
03B800
01B000
C1F060
FFFFE0
FFFFE0
F8E3E0
01F000
03B800
07BC00
071C00
0F1E00
1E0F00
0E0E00
020800
ENDCHAR
STARTCHAR 002B
ENCODING 43
SWIDTH 1020 0
DWIDTH 49 0
BBX 29 29 10 0
BITMAP
00070000
00070000
00070000
00070000
00070000
00070000
00070000
00070000
00070000
00070000
00070000
00070000
00070000
FFFFFFF8
FFFFFFF8
FFFFFFF8
00070000
00070000
00070000
00070000
00070000
00070000
00070000
00070000
00070000
00070000
00070000
00070000
00070000
ENDCHAR
STARTCHAR 002C
ENCODING 44
SWIDTH 270 0
DWIDTH 13 0
BBX 9 12 2 -6
BITMAP
1F80
1F00
1F00
3E00
3E00
3E00
3C00
7C00
7800
7800
7000
F000
ENDCHAR
STARTCHAR 002D
ENCODING 45
SWIDTH 333 0
DWIDTH 16 0
BBX 12 4 2 10
BITMAP
FFF0
FFF0
FFF0
FFF0
ENDCHAR
STARTCHAR 002E
ENCODING 46
SWIDTH 270 0
DWIDTH 13 0
BBX 5 6 5 0
BITMAP
F8
F8
F8
F8
F8
F8
ENDCHAR
STARTCHAR 002F
ENCODING 47
SWIDTH 395 0
DWIDTH 19 0
BBX 15 39 2 -3
BITMAP
000E
001E
001C
001C
003C
0038
0038
0078
0070
0070
0070
00F0
00E0
00E0
01E0
01C0
01C0
01C0
03C0
0380
0380
0780
0700
0700
0F00
0F00
0E00
0E00
1E00
1C00
1C00
3C00
3800
3800
3800
7800
7000
7000
F000
ENDCHAR
STARTCHAR 0030
ENCODING 48
SWIDTH 562 0
DWIDTH 27 0
BBX 22 35 2 1
BITMAP
03FF00
07FF80
1FFFE0
1FFFE0
3E03F0
3E01F0
7C00F8
7800F8
780078
F80078
F8007C
F8007C
F8007C
F8007C
F8007C
F8007C
F8007C
F8007C
F8007C
F8007C
F8007C
F8007C
F8007C
F8007C
78007C
780078
780078
7C00F8
3C00F8
3E01F0
3F03F0
1FFFE0
0FFFC0
07FF80
01FF00
ENDCHAR
STARTCHAR 0031
ENCODING 49
SWIDTH 562 0
DWIDTH 27 0
BBX 12 35 7 0
BITMAP
03F0
07F0
0FF0
1FF0
7FF0
FFF0
FDF0
F1F0
C1F0
01F0
01F0
01F0
01F0
01F0
01F0
01F0
01F0
01F0
01F0
01F0
01F0
01F0
01F0
01F0
01F0
01F0
01F0
01F0
01F0
01F0
01F0
01F0
01F0
01F0
01F0
ENDCHAR
STARTCHAR 0032
ENCODING 50
SWIDTH 562 0
DWIDTH 27 0
BBX 21 35 3 1
BITMAP
03FF00
0FFF80
1FFFC0
3FFFE0
3F01F0
7E00F0
7C00F8
7C00F8
7C00F8
7C00F8
0000F8
0000F8
0000F0
0001F0
0003E0
0007E0
0007C0
000F80
001F80
003F00
007E00
00FC00
01F800
03F000
07E000
0FC000
1FC000
1F8000
3F0000
7E0000
FC0000
FFFFF8
FFFFF8
FFFFF8
FFFFF8
ENDCHAR
STARTCHAR 0033
ENCODING 51
SWIDTH 562 0
DWIDTH 27 0
BBX 22 35 2 1
BITMAP
03FF00
0FFFC0
1FFFE0
1FFFF0
3F01F8
3E00F8
7C0078
7C0078
7C007C
000078
000078
0000F8
0001F0
000FE0
00FFC0
00FF00
00FF80
00FFC0
000FE0
0001F0
0000F8
0000F8
00007C
00007C
00007C
F8007C
F8007C
FC007C
FC0078
7C00F8
7F03F8
3FFFF0
1FFFE0
0FFFC0
03FF00
ENDCHAR
STARTCHAR 0034
ENCODING 52
SWIDTH 562 0
DWIDTH 27 0
BBX 24 35 1 0
BITMAP
0003F0
0007F0
0007F0
000FF0
001FF0
003FF0
003DF0
0079F0
00F9F0
00F1F0
01E1F0
03E1F0
03C1F0
0781F0
0F81F0
0F01F0
1E01F0
3E01F0
3C01F0
7801F0
F801F0
F001F0
FFFFFF
FFFFFF
FFFFFF
FFFFFF
0001F0
0001F0
0001F0
0001F0
0001F0
0001F0
0001F0
0001F0
0001F0
ENDCHAR
STARTCHAR 0035
ENCODING 53
SWIDTH 562 0
DWIDTH 27 0
BBX 21 35 3 0
BITMAP
7FFFE0
7FFFE0
7FFFE0
7FFFE0
7C0000
7C0000
7C0000
7C0000
7C0000
7C0000
7C0000
7C0000
7CFE00
7DFF80
7FFFC0
7F83E0
7E01F0
7C00F0
7800F8
780078
000078
000078
000078
000078
000078
000078
F80078
F800F8
F800F0
F801F0
7E03E0
3FFFE0
3FFFC0
0FFF80
07FE00
ENDCHAR
STARTCHAR 0036
ENCODING 54
SWIDTH 562 0
DWIDTH 27 0
BBX 23 35 2 1
BITMAP
01FF80
07FFC0
0FFFE0
1FC1F0
1F00F8
3E00F8
3E0078
7C0078
7C0000
780000
780000
780000
780000
787F00
78FFC0
F9FFF0
FBFFF0
FF83F8
FE00F8
FC007C
FC007C
F8003C
F8003C
F8003C
F8003E
F8003C
F8003C
78003C
7C007C
7C0078
3F01F8
1FFFF0
0FFFE0
07FFC0
01FF00
ENDCHAR
STARTCHAR 0037
ENCODING 55
SWIDTH 562 0
DWIDTH 27 0
BBX 21 35 3 0
BITMAP
FFFFF8
FFFFF8
FFFFF8
FFFFF8
000078
0000F8
0000F0
0001F0
0001F0
0001E0
0003E0
0003E0
0007C0
0007C0
000780
000F80
000F80
000F00
001F00
001F00
003E00
003E00
003E00
007C00
007C00
00F800
00F800
00F800
01F000
01F000
03F000
03E000
03E000
07C000
07C000
ENDCHAR
STARTCHAR 0038
ENCODING 56
SWIDTH 562 0
DWIDTH 27 0
BBX 22 35 2 1
BITMAP
03FF80
0FFFE0
1FFFF0
3FFFF8
3F01F8
7E00FC
7C007C
7C007C
7C007C
7C007C
7C007C
3C0078
3E00F8
1F83F0
0FFFE0
03FF80
07FF80
0FFFE0
1F03F0
3E00F8
7C0078
78007C
F8003C
F8003C
F8003C
F8003C
F8003C
F8003C
F8007C
7C007C
7E01F8
3FFFF8
1FFFF0
0FFFE0
03FF80
ENDCHAR
STARTCHAR 0039
ENCODING 57
SWIDTH 562 0
DWIDTH 27 0
BBX 22 35 2 1
BITMAP
03FF80
0FFFC0
1FFFE0
3FFFF0
7E01F8
7C00F8
7800F8
F8007C
F8007C
F8007C
F8007C
F8007C
F8007C
F8007C
F800FC
7800FC
7C01FC
7F03FC
3FFFFC
1FFF7C
0FFE7C
03F87C
00007C
00007C
000078
000078
0000F8
7800F8
7801F0
7C01F0
3E03E0
3FFFE0
1FFFC0
0FFF80
07FE00
ENDCHAR
STARTCHAR 003A
ENCODING 58
SWIDTH 270 0
DWIDTH 13 0
BBX 5 24 5 0
BITMAP
F8
F8
F8
F8
F8
F8
00
00
00
00
00
00
00
00
00
00
00
00
F8
F8
F8
F8
F8
F8
ENDCHAR
STARTCHAR 003B
ENCODING 59
SWIDTH 270 0
DWIDTH 13 0
BBX 8 30 3 -6
BITMAP
3E
3E
3E
3E
3E
3E
00
00
00
00
00
00
00
00
00
00
00
00
3F
3E
3E
3E
7C
7C
78
78
F0
F0
F0
E0
ENDCHAR
STARTCHAR 003C
ENCODING 60
SWIDTH 1020 0
DWIDTH 49 0
BBX 29 25 10 2
BITMAP
00000018
000000F8
000003F8
00001FE0
0000FF00
0003F800
001FE000
007F0000
03F80000
0FE00000
7F000000
F8000000
E0000000
FC000000
3F800000
0FE00000
01FC0000
007F8000
000FE000
0003FC00
00007F80
00000FE0
000003F8
00000078
00000018
ENDCHAR
STARTCHAR 003D
ENCODING 61
SWIDTH 1020 0
DWIDTH 49 0
BBX 29 12 10 9
BITMAP
FFFFFFF8
FFFFFFF8
FFFFFFF8
00000000
00000000
00000000
00000000
00000000
00000000
FFFFFFF8
FFFFFFF8
FFFFFFF8
ENDCHAR
STARTCHAR 003E
ENCODING 62
SWIDTH 1020 0
DWIDTH 49 0
BBX 29 25 10 2
BITMAP
C0000000
F8000000
FE000000
3FC00000
07F80000
00FE0000
003FC000
0007F000
0000FE00
00003F80
000007F0
000000F8
00000038
000001F8
00000FE0
00003F80
0001FC00
000FF000
003F8000
01FE0000
0FF00000
3F800000
FE000000
F0000000
C0000000
ENDCHAR
STARTCHAR 003F
ENCODING 63
SWIDTH 520 0
DWIDTH 25 0
BBX 21 35 1 1
BITMAP
07FE00
0FFF80
1FFFE0
3FFFE0
7FBFF0
FC01F8
7000F8
3000F8
0000F8
0000F8
0000F8
0000F0
0001F0
0003E0
0007C0
000F80
001E00
007C00
00F800
01F000
01E000
01E000
01E000
01E000
01E000
01E000
01E000
000000
000000
000000
01F000
01F000
01F000
01F000
01F000
ENDCHAR
STARTCHAR 0040
ENCODING 64
SWIDTH 1000 0
DWIDTH 48 0
BBX 42 43 3 -8
BITMAP
0000FFC00000
0007FFFC0000
001FFFFF0000
007FFFFFC000
01FF003FE000
03F80007F000
07E00001F800
0FC000007C00
0F8000003E00
1F0000001F00
3E0000001F00
3E00FC7C0F00
7C03FF7C0F80
7C07FFFC0780
780FC3FC0780
780F80FC07C0
F81F00FC07C0
F81F007C07C0
F81E007C07C0
F81E007C07C0
F81E007C07C0
F83E007C07C0
F83E007C07C0
F81E007C07C0
F81E007C07C0
F81E007C0780
781F007C0F80
781F00FC0F80
7C0F81FE1F00
7C07C3FFFF00
3C07FF9FFE00
3E03FF1FFC00
3F00FC0FF800
1F000003E000
1F8000000000
0FC000000000
07F000000000
03F800000000
01FF800C0000
007FFFFC0000
003FFFFC0000
0007FFFC0000
0000FFF00000
ENDCHAR
STARTCHAR 0041
ENCODING 65
SWIDTH 750 0
DWIDTH 36 0
BBX 34 35 1 0
BITMAP
0003F00000
0003F00000
0007F80000
0007F80000
000FF80000
000FFC0000
000F7C0000
001F3E0000
001E3E0000
003E1F0000
003E1F0000
007C1F0000
007C0F8000
00780F8000
00F807C000
00F807C000
01F003E000
01F003E000
01E003E000
03E001F000
03E001F000
07FFFFF800
07FFFFF800
0FFFFFF800
0FFFFFFC00
0F00003C00
1F00003E00
1F00003E00
3E00001F00
3E00001F00
3C00001F00
7C00000F80
7C00000F80
F8000007C0
F8000007C0
ENDCHAR
STARTCHAR 0042
ENCODING 66
SWIDTH 666 0
DWIDTH 32 0
BBX 26 35 4 0
BITMAP
FFFFC000
FFFFF000
FFFFFC00
FFFFFE00
F800FE00
F8003F00
F8001F00
F8000F00
F8000F00
F8000F00
F8000F00
F8000F00
F8001F00
F8003E00
F800FC00
FFFFF800
FFFFE000
FFFFF000
FFFFFC00
F800FE00
F8001F00
F8000F80
F8000F80
F8000780
F8000780
F80007C0
F8000780
F8000F80
F8000F80
F8003F80
F800FF00
FFFFFE00
FFFFFC00
FFFFF800
FFFFC000
ENDCHAR
STARTCHAR 0043
ENCODING 67
SWIDTH 666 0
DWIDTH 32 0
BBX 26 35 3 1
BITMAP
007FF000
01FFFC00
07FFFF00
0FFFFF00
1FC01F80
1F0007C0
3E0007C0
3E0003C0
7C0003C0
7C0003C0
78000000
78000000
F8000000
F8000000
F8000000
F8000000
F8000000
F8000000
F8000000
F8000000
F8000000
F8000000
F8000000
78000000
78000000
78000000
7C0003C0
3C0003C0
3E0007C0
1F0007C0
1F801F80
0FFFFF00
07FFFE00
03FFFC00
00FFF000
ENDCHAR
STARTCHAR 0044
ENCODING 68
SWIDTH 708 0
DWIDTH 34 0
BBX 28 35 4 0
BITMAP
FFFE0000
FFFFE000
FFFFF800
FFFFFC00
F801FE00
F8007F00
F8001F80
F8000F80
F80007C0
F80007C0
F80003E0
F80003E0
F80003E0
F80001E0
F80001E0
F80001E0
F80001E0
F80001F0
F80001E0
F80001E0
F80001E0
F80001E0
F80003E0
F80003E0
F80003C0
F80007C0
F8000FC0
F8000F80
F8001F80
F8007F00
F801FE00
FFFFFC00
FFFFF800
FFFFE000
FFFE0000
ENDCHAR
STARTCHAR 0045
ENCODING 69
SWIDTH 604 0
DWIDTH 29 0
BBX 22 35 4 0
BITMAP
FFFFFC
FFFFFC
FFFFFC
FFFFFC
F80000
F80000
F80000
F80000
F80000
F80000
F80000
F80000
F80000
F80000
F80000
FFFFF8
FFFFF8
FFFFF8
FFFFF8
F80000
F80000
F80000
F80000
F80000
F80000
F80000
F80000
F80000
F80000
F80000
F80000
FFFFFC
FFFFFC
FFFFFC
FFFFFC
ENDCHAR
STARTCHAR 0046
ENCODING 70
SWIDTH 562 0
DWIDTH 27 0
BBX 20 35 4 0
BITMAP
FFFFF0
FFFFF0
FFFFF0
FFFFF0
F80000
F80000
F80000
F80000
F80000
F80000
F80000
F80000
F80000
F80000
F80000
FFFFE0
FFFFE0
FFFFE0
FFFFE0
F80000
F80000
F80000
F80000
F80000
F80000
F80000
F80000
F80000
F80000
F80000
F80000
F80000
F80000
F80000
F80000
ENDCHAR
STARTCHAR 0047
ENCODING 71
SWIDTH 750 0
DWIDTH 36 0
BBX 30 36 3 0
BITMAP
00008000
003FFE00
00FFFF80
01FFFFC0
07FFFFE0
0FE007F0
1F8001F8
1F0000F8
3E000078
3C000078
7C000000
78000000
78000000
F8000000
F8000000
F8000000
F8000000
F8007FFC
F8007FFC
F8007FFC
F8007FFC
F800007C
F800007C
7800007C
7C00007C
7C00007C
7C00007C
3E00007C
3E00007C
1F00007C
1F80007C
0FE000FC
07FFFFFC
03FFFFFC
00FFFFF8
003FFF80
ENDCHAR
STARTCHAR 0048
ENCODING 72
SWIDTH 708 0
DWIDTH 34 0
BBX 26 35 4 0
BITMAP
F80007C0
F80007C0
F80007C0
F80007C0
F80007C0
F80007C0
F80007C0
F80007C0
F80007C0
F80007C0
F80007C0
F80007C0
F80007C0
F80007C0
F80007C0
FFFFFFC0
FFFFFFC0
FFFFFFC0
FFFFFFC0
F80007C0
F80007C0
F80007C0
F80007C0
F80007C0
F80007C0
F80007C0
F80007C0
F80007C0
F80007C0
F80007C0
F80007C0
F80007C0
F80007C0
F80007C0
F80007C0
ENDCHAR
STARTCHAR 0049
ENCODING 73
SWIDTH 250 0
DWIDTH 12 0
BBX 5 35 4 0
BITMAP
F8
F8
F8
F8
F8
F8
F8
F8
F8
F8
F8
F8
F8
F8
F8
F8
F8
F8
F8
F8
F8
F8
F8
F8
F8
F8
F8
F8
F8
F8
F8
F8
F8
F8
F8
ENDCHAR
STARTCHAR 004A
ENCODING 74
SWIDTH 562 0
DWIDTH 27 0
BBX 21 35 3 0
BITMAP
0000F8
0000F8
0000F8
0000F8
0000F8
0000F8
0000F8
0000F8
0000F8
0000F8
0000F8
0000F8
0000F8
0000F8
0000F8
0000F8
0000F8
0000F8
0000F8
0000F8
0000F8
0000F8
0000F8
0000F8
0000F8
0000F0
F800F0
F800F0
F801F0
7803F0
7C07E0
3FFFC0
3FFFC0
0FFF00
07FE00
ENDCHAR
STARTCHAR 004B
ENCODING 75
SWIDTH 666 0
DWIDTH 32 0
BBX 26 35 4 0
BITMAP
F8003F00
F8007E00
F800FC00
F801F800
F803F000
F807E000
F807C000
F80F8000
F81F0000
F83E0000
F87E0000
F8FC0000
F9F80000
FBF00000
FFE00000
FFC00000
FFE00000
FFF00000
FBF80000
F9FC0000
F8FE0000
F87E0000
F83F0000
F83F8000
F81FC000
F80FE000
F807E000
F803F000
F801F800
F801FC00
F800FE00
F8007F00
F8003F00
F8001F80
F8000FC0
ENDCHAR
STARTCHAR 004C
ENCODING 76
SWIDTH 520 0
DWIDTH 25 0
BBX 20 35 4 0
BITMAP
F80000
F80000
F80000
F80000
F80000
F80000
F80000
F80000
F80000
F80000
F80000
F80000
F80000
F80000
F80000
F80000
F80000
F80000
F80000
F80000
F80000
F80000
F80000
F80000
F80000
F80000
F80000
F80000
F80000
F80000
F80000
FFFFF0
FFFFF0
FFFFF0
FFFFF0
ENDCHAR
STARTCHAR 004D
ENCODING 77
SWIDTH 895 0
DWIDTH 43 0
BBX 35 35 4 0
BITMAP
FF00000FE0
FF00001FE0
FF00001FE0
FF80003FE0
FF80003FE0
FF80003FE0
FFC0007FE0
FFC0007BE0
FBC0007BE0
FBE000FBE0
F9E000F3E0
F9E000F3E0
F9F001F3E0
F8F001E3E0
F8F803E3E0
F8F803E3E0
F87803C3E0
F87C07C3E0
F87C0783E0
F83C0783E0
F83E0F83E0
F81E0F03E0
F81E0F03E0
F81F1F03E0
F80F1E03E0
F80F3E03E0
F80FBE03E0
F807BC03E0
F807FC03E0
F803F803E0
F803F803E0
F803F803E0
F801F003E0
F801F003E0
F801F003E0
ENDCHAR
STARTCHAR 004E
ENCODING 78
SWIDTH 729 0
DWIDTH 35 0
BBX 27 35 4 0
BITMAP
FE0003E0
FE0003E0
FF0003E0
FF8003E0
FF8003E0
FFC003E0
FFC003E0
FFE003E0
FBE003E0
FBF003E0
F9F003E0
F9F803E0
F8FC03E0
F8FC03E0
F87E03E0
F83E03E0
F83F03E0
F81F03E0
F81F83E0
F80F83E0
F80FC3E0
F807E3E0
F807E3E0
F803F3E0
F801F3E0
F801FBE0
F800FBE0
F800FFE0
F8007FE0
F8007FE0
F8003FE0
F8003FE0
F8001FE0
F8000FE0
F8000FE0
ENDCHAR
STARTCHAR 004F
ENCODING 79
SWIDTH 770 0
DWIDTH 37 0
BBX 31 35 3 1
BITMAP
007FFC00
01FFFF00
03FFFF80
07FFFFC0
0FC007E0
1F8003F0
3F0000F8
3E0000F8
7C00007C
7C00007C
7800003C
7800003C
F800003E
F800003E
F800003E
F800003E
F800003E
F800003E
F800003E
F800003E
F800003E
F800003E
7800003C
7800003C
7C00007C
7C00007C
3C0000F8
3E0000F8
1F0001F0
0F8003F0
0FE00FE0
07FFFFC0
03FFFF80
00FFFE00
003FF800
ENDCHAR
STARTCHAR 0050
ENCODING 80
SWIDTH 625 0
DWIDTH 30 0
BBX 23 35 4 0
BITMAP
FFFE00
FFFFC0
FFFFF0
FFFFF8
F803FC
F8007C
F8003E
F8003E
F8003E
F8003E
F8003E
F8003E
F8003E
F8003E
F8007C
F803FC
FFFFF8
FFFFF0
FFFFC0
FFFE00
F80000
F80000
F80000
F80000
F80000
F80000
F80000
F80000
F80000
F80000
F80000
F80000
F80000
F80000
F80000
ENDCHAR
STARTCHAR 0051
ENCODING 81
SWIDTH 791 0
DWIDTH 38 0
BBX 34 35 3 1
BITMAP
003FFC0000
01FFFF0000
03FFFF8000
07FFFFC000
0FC007E000
1F8003F000
3F0000F800
3E0000F800
7C00007C00
7C00007C00
7800003C00
7800003C00
F800003E00
F800003E00
F800003E00
F800003E00
F800003E00
F800003E00
F800003E00
F800003E00
F800003E00
F800003E00
7800003C00
7800003C00
7C00007C00
7C00007C00
3C0000F800
3E0000F800
1F0001F000
0F8003F000
0FE00FE000
07FFFFDFC0
03FFFFFFC0
00FFFFFFC0
003FFFFFC0
ENDCHAR
STARTCHAR 0052
ENCODING 82
SWIDTH 625 0
DWIDTH 30 0
BBX 24 35 4 0
BITMAP
FFFF00
FFFFE0
FFFFF8
FFFFFC
F801FC
F8007E
F8003E
F8001E
F8001E
F8001E
F8001E
F8001E
F8003E
F8007C
F801F8
FFFFF0
FFFFC0
FFFFE0
FFFFF0
F801F8
F800F8
F8007C
F8007C
F8007C
F8003C
F8003C
F8003E
F8003E
F8003E
F8001E
F8001E
F8001E
F8001F
F8001F
F8000F
ENDCHAR
STARTCHAR 0053
ENCODING 83
SWIDTH 666 0
DWIDTH 32 0
BBX 26 35 3 1
BITMAP
01FFC000
07FFF800
0FFFFC00
1FFFFE00
3E003E00
7C001F00
78000F00
78000F00
F8000F00
78000000
78000000
7C000000
7E000000
7F800000
3FF00000
1FFF8000
0FFFF000
03FFFC00
007FFE00
0003FF00
00003F80
00000F80
000007C0
000007C0
000007C0
F80007C0
F80007C0
F80007C0
7C000780
7C000F80
7F003F00
3FFFFF00
1FFFFE00
0FFFF800
03FFC000
ENDCHAR
STARTCHAR 0054
ENCODING 84
SWIDTH 625 0
DWIDTH 30 0
BBX 28 35 1 0
BITMAP
FFFFFFF0
FFFFFFF0
FFFFFFF0
FFFFFFF0
001F0000
001F0000
001F0000
001F0000
001F0000
001F0000
001F0000
001F0000
001F0000
001F0000
001F0000
001F0000
001F0000
001F0000
001F0000
001F0000
001F0000
001F0000
001F0000
001F0000
001F0000
001F0000
001F0000
001F0000
001F0000
001F0000
001F0000
001F0000
001F0000
001F0000
001F0000
ENDCHAR
STARTCHAR 0055
ENCODING 85
SWIDTH 729 0
DWIDTH 35 0
BBX 28 35 4 0
BITMAP
F80001F0
F80001F0
F80001F0
F80001F0
F80001F0
F80001F0
F80001F0
F80001F0
F80001F0
F80001F0
F80001F0
F80001F0
F80001F0
F80001F0
F80001F0
F80001F0
F80001F0
F80001F0
F80001F0
F80001F0
F80001E0
F80001E0
F80001E0
F80001E0
F80001E0
780003E0
780003E0
7C0003C0
7C0007C0
3E000FC0
3F801F80
1FFFFF00
0FFFFF00
07FFFC00
01FFF000
ENDCHAR
STARTCHAR 0056
ENCODING 86
SWIDTH 645 0
DWIDTH 31 0
BBX 29 35 1 0
BITMAP
F80000F8
FC0000F8
7C0001F8
7C0001F0
7E0001F0
3E0003F0
3E0003E0
3F0003E0
1F0007E0
1F0007C0
1F8007C0
0F800FC0
0F800F80
0FC00F80
07C01F80
07C01F00
03E01F00
03E03F00
03E03E00
01F03E00
01F07C00
01F07C00
00F87C00
00F8F800
00F8F800
007CF800
007DF000
007DF000
003FF000
003FE000
003FE000
001FE000
001FC000
000FC000
000FC000
ENDCHAR
STARTCHAR 0057
ENCODING 87
SWIDTH 979 0
DWIDTH 47 0
BBX 45 35 1 0
BITMAP
F8001F8000F8
F8001FC001F8
F8001FC001F0
7C003FC001F0
7C003FC001F0
7C003FE003E0
3E003DE003E0
3E007DE003E0
3E007DE003C0
3E0079F007C0
1F0078F007C0
1F00F8F007C0
1F00F8F00780
0F00F0F80F80
0F80F0780F80
0F81F0780F00
0781E07C1F00
0781E03C1F00
07C1E03C1F00
07C3E03C1E00
03C3C03E3E00
03E3C01E3E00
03E3C01E3C00
01E7C01E3C00
01E7801F7C00
01F7800F7800
01FF800F7800
00FF000F7800
00FF0007F800
00FF0007F000
007F0007F000
007E0007F000
007E0003E000
003E0003E000
003C0003E000
ENDCHAR
STARTCHAR 0058
ENCODING 88
SWIDTH 708 0
DWIDTH 34 0
BBX 30 35 2 0
BITMAP
7E0001F8
3F0003F0
1F8003E0
1F8007E0
0FC00FC0
07E00F80
07E01F80
03F01F00
01F03E00
01F87C00
00FC7C00
007CF800
007FF000
003FF000
001FE000
001FC000
000FC000
001FE000
003FE000
003FF000
007DF800
00F8F800
00F8FC00
01F07E00
03F03E00
03E03F00
07C01F80
0FC00F80
0F800FC0
1F0007E0
3F0003F0
3E0003F0
7C0001F8
FC0001FC
F80000FC
ENDCHAR
STARTCHAR 0059
ENCODING 89
SWIDTH 666 0
DWIDTH 32 0
BBX 30 35 1 0
BITMAP
FC00007C
7E0000F8
3E0001F8
3F0001F0
1F8003F0
0F8003E0
0FC007C0
07C007C0
07E00F80
03E00F80
01F01F00
01F83E00
00F83E00
00FC7C00
007C7C00
003EF800
003EF000
001FF000
001FE000
000FC000
0007C000
0007C000
0007C000
0007C000
0007C000
0007C000
0007C000
0007C000
0007C000
0007C000
0007C000
0007C000
0007C000
0007C000
0007C000
ENDCHAR
STARTCHAR 005A
ENCODING 90
SWIDTH 604 0
DWIDTH 29 0
BBX 25 35 2 0
BITMAP
7FFFFF80
7FFFFF80
7FFFFF80
7FFFFF80
00001F80
00001F80
00003F00
00007E00
0000FC00
0001FC00
0001F800
0003F000
0007E000
000FE000
000FC000
001F8000
003F0000
007F0000
007E0000
00FC0000
01F80000
03F80000
03F00000
07E00000
0FC00000
1FC00000
1F800000
3F000000
7E000000
FE000000
FC000000
FFFFFF80
FFFFFF80
FFFFFF80
FFFFFF80
ENDCHAR
STARTCHAR 005B
ENCODING 91
SWIDTH 395 0
DWIDTH 19 0
BBX 9 45 5 -10
BITMAP
FF80
FF80
F800
F800
F800
F800
F800
F800
F800
F800
F800
F800
F800
F800
F800
F800
F800
F800
F800
F800
F800
F800
F800
F800
F800
F800
F800
F800
F800
F800
F800
F800
F800
F800
F800
F800
F800
F800
F800
F800
F800
F800
FF80
FF80
FF80
ENDCHAR
STARTCHAR 005C
ENCODING 92
SWIDTH 395 0
DWIDTH 19 0
BBX 15 39 2 -3
BITMAP
F000
7000
7000
7000
7800
3800
3800
3C00
1C00
1C00
1C00
1E00
0E00
0E00
0F00
0700
0700
0780
0380
0380
0380
03C0
01C0
01C0
01E0
00E0
00E0
00E0
00F0
0070
0070
0078
0038
0038
003C
001C
001C
001C
001E
ENDCHAR
STARTCHAR 005D
ENCODING 93
SWIDTH 416 0
DWIDTH 20 0
BBX 9 45 6 -10
BITMAP
FF80
FF80
0F80
0F80
0F80
0F80
0F80
0F80
0F80
0F80
0F80
0F80
0F80
0F80
0F80
0F80
0F80
0F80
0F80
0F80
0F80
0F80
0F80
0F80
0F80
0F80
0F80
0F80
0F80
0F80
0F80
0F80
0F80
0F80
0F80
0F80
0F80
0F80
0F80
0F80
0F80
0F80
FF80
FF80
FF80
ENDCHAR
STARTCHAR 005E
ENCODING 94
SWIDTH 1000 0
DWIDTH 48 0
BBX 24 30 12 0
BITMAP
003C00
003C00
003C00
007E00
007E00
006600
00E700
00E700
01C300
01C380
01C380
0381C0
0381C0
0300C0
0700E0
0700E0
060060
0E0070
0E0070
1C0038
1C0038
1C0038
38001C
38001C
30000C
70000E
70000E
E00007
E00007
E00007
ENDCHAR
STARTCHAR 005F
ENCODING 95
SWIDTH 500 0
DWIDTH 24 0
BBX 24 3 0 -6
BITMAP
FFFFFF
FFFFFF
FFFFFF
ENDCHAR
STARTCHAR 0060
ENCODING 96
SWIDTH 229 0
DWIDTH 11 0
BBX 9 9 -1 29
BITMAP
F800
7800
7C00
3C00
1E00
0E00
0700
0780
0380
ENDCHAR
STARTCHAR 0061
ENCODING 97
SWIDTH 541 0
DWIDTH 26 0
BBX 22 24 2 1
BITMAP
07FF80
0FFFE0
1FFFF0
3F01F0
3E00F8
3C00F8
7C0078
000078
000078
00FFF8
07FFF8
1FFFF8
3FC0F8
7E00F8
7C00F8
F800F8
F800F8
F800F8
F801F8
F801F8
7C07F8
7FFF78
1FFE78
0FF87C
ENDCHAR
STARTCHAR 0062
ENCODING 98
SWIDTH 583 0
DWIDTH 28 0
BBX 22 35 3 0
BITMAP
F80000
F80000
F80000
F80000
F80000
F80000
F80000
F80000
F80000
F80000
F80000
F8FF80
FBFFE0
FFFFF0
FF01F0
FE00F8
FC0078
FC007C
F8007C
F8003C
F8003C
F8003C
F8003C
F8003C
F8003C
F8003C
F8003C
F8007C
F80078
FC00F8
FE01F0
FF03F0
FFFFE0
FBFFC0
F8FF00
ENDCHAR
STARTCHAR 0063
ENCODING 99
SWIDTH 520 0
DWIDTH 25 0
BBX 20 24 2 1
BITMAP
07FF00
0FFFC0
1FFFE0
3E03F0
7C01F0
7C00F0
7800F0
F800F0
F80000
F80000
F80000
F80000
F80000
F80000
F80000
F80000
F800F0
7800F0
7C01F0
7C01F0
3E03E0
1FFFE0
0FFFC0
03FF00
ENDCHAR
STARTCHAR 0064
ENCODING 100
SWIDTH 583 0
DWIDTH 28 0
BBX 23 35 2 0
BITMAP
00003E
00003E
00003E
00003E
00003E
00003E
00003E
00003E
00003E
00003E
00003E
03FE3E
0FFF3E
1FFFBE
3F03FE
3E01FE
7C00FE
7C007E
78007E
F8007E
F8003E
F8003E
F8003E
F8003E
F8003E
F8003E
F8003E
78007E
7C007E
7C00FE
3E00FE
1F03FE
0FFFFE
07FFBE
01FE3E
ENDCHAR
STARTCHAR 0065
ENCODING 101
SWIDTH 541 0
DWIDTH 26 0
BBX 22 24 2 1
BITMAP
03FF80
0FFFC0
1FFFE0
3F01F0
3C00F8
7C0078
78007C
78007C
F8007C
FFFFFC
FFFFFC
FFFFFC
F80000
F80000
F80000
F80000
78007C
78007C
7C00F8
3E00F8
1F01F0
1FFFE0
07FFC0
03FF00
ENDCHAR
STARTCHAR 0066
ENCODING 102
SWIDTH 354 0
DWIDTH 17 0
BBX 16 35 1 1
BITMAP
01FF
03FF
07FF
07C0
0780
0780
0F80
0F80
0F80
0F80
0F80
FFFE
FFFE
FFFE
0F80
0F80
0F80
0F80
0F80
0F80
0F80
0F80
0F80
0F80
0F80
0F80
0F80
0F80
0F80
0F80
0F80
0F80
0F80
0F80
0F80
ENDCHAR
STARTCHAR 0067
ENCODING 103
SWIDTH 583 0
DWIDTH 28 0
BBX 23 34 2 -9
BITMAP
03FF3E
0FFFBE
1FFFFE
3F01FE
3C00FE
7C007E
78007E
F8007E
F8003E
F8003E
F8003E
F8003E
F8003E
F8003E
F8003E
F8003E
78007E
7C007E
7C00FE
3E01FE
3F83FE
1FFFBE
07FF3E
01FC3C
00003C
00003C
7C007C
7C007C
7C00F8
3E00F8
3F83F0
1FFFE0
07FF80
01FE00
ENDCHAR
STARTCHAR 0068
ENCODING 104
SWIDTH 562 0
DWIDTH 27 0
BBX 21 35 3 0
BITMAP
F80000
F80000
F80000
F80000
F80000
F80000
F80000
F80000
F80000
F80000
F80000
F9FF80
FBFFE0
FFFFE0
FF03F0
FC01F0
F800F8
F800F8
F800F8
F800F8
F800F8
F800F8
F800F8
F800F8
F800F8
F800F8
F800F8
F800F8
F800F8
F800F8
F800F8
F800F8
F800F8
F800F8
F800F8
ENDCHAR
STARTCHAR 0069
ENCODING 105
SWIDTH 229 0
DWIDTH 11 0
BBX 5 35 3 0
BITMAP
F8
F8
F8
F8
00
00
00
00
00
00
00
F8
F8
F8
F8
F8
F8
F8
F8
F8
F8
F8
F8
F8
F8
F8
F8
F8
F8
F8
F8
F8
F8
F8
F8
ENDCHAR
STARTCHAR 006A
ENCODING 106
SWIDTH 291 0
DWIDTH 14 0
BBX 8 45 3 -10
BITMAP
1F
1F
1F
1F
00
00
00
00
00
00
00
1F
1F
1F
1F
1F
1F
1F
1F
1F
1F
1F
1F
1F
1F
1F
1F
1F
1F
1F
1F
1F
1F
1F
1F
1F
1F
1F
1F
1F
1F
1F
FE
FC
F8
ENDCHAR
STARTCHAR 006B
ENCODING 107
SWIDTH 500 0
DWIDTH 24 0
BBX 19 35 3 0
BITMAP
F80000
F80000
F80000
F80000
F80000
F80000
F80000
F80000
F80000
F80000
F80000
F807E0
F80FC0
F81F80
F83F00
F87E00
F87C00
F8F800
F9F000
FBE000
FFC000
FF8000
FFC000
FFE000
FBF000
F9F800
F8F800
F8FC00
F87E00
F83F00
F81F00
F81F80
F80FC0
F807E0
F803E0
ENDCHAR
STARTCHAR 006C
ENCODING 108
SWIDTH 229 0
DWIDTH 11 0
BBX 5 35 3 0
BITMAP
F8
F8
F8
F8
F8
F8
F8
F8
F8
F8
F8
F8
F8
F8
F8
F8
F8
F8
F8
F8
F8
F8
F8
F8
F8
F8
F8
F8
F8
F8
F8
F8
F8
F8
F8
ENDCHAR
STARTCHAR 006D
ENCODING 109
SWIDTH 895 0
DWIDTH 43 0
BBX 37 24 3 1
BITMAP
F8FF81FF00
FBFFC3FFC0
FFFFE7FFE0
FF03EF03E0
FC01FC01F0
FC01FC01F0
F800F800F0
F800F800F0
F800F800F0
F800F800F8
F800F800F8
F800F800F8
F800F800F8
F800F800F8
F800F800F8
F800F800F8
F800F800F8
F800F800F8
F800F800F8
F800F800F8
F800F800F8
F800F800F8
F800F800F8
F800F800F8
ENDCHAR
STARTCHAR 006E
ENCODING 110
SWIDTH 562 0
DWIDTH 27 0
BBX 21 24 3 1
BITMAP
F9FF80
FBFFC0
FFFFE0
FE03F0
FC01F0
F800F8
F800F8
F800F8
F800F8
F800F8
F800F8
F800F8
F800F8
F800F8
F800F8
F800F8
F800F8
F800F8
F800F8
F800F8
F800F8
F800F8
F800F8
F800F8
ENDCHAR
STARTCHAR 006F
ENCODING 111
SWIDTH 583 0
DWIDTH 28 0
BBX 23 24 2 1
BITMAP
01FF80
07FFE0
0FFFF0
1F01F8
3E00FC
7C007C
7C003E
78003E
F8001E
F8001E
F8001E
F8001E
F8001E
F8001E
F8001E
F8001E
78003E
7C003E
7C007C
3E00FC
1F01F8
0FFFF0
07FFE0
01FF80
ENDCHAR
STARTCHAR 0070
ENCODING 112
SWIDTH 583 0
DWIDTH 28 0
BBX 23 34 3 -9
BITMAP
F8FF80
FBFFE0
FFFFF0
FF01F8
FE00F8
FC007C
FC007C
F8003C
F8003E
F8003E
F8003E
F8003E
F8003E
F8003E
F8003E
F8003E
F8003E
FC007C
FC007C
FE00F8
FF01F8
FFFFF0
FBFFE0
F8FF80
F80000
F80000
F80000
F80000
F80000
F80000
F80000
F80000
F80000
F80000
ENDCHAR
STARTCHAR 0071
ENCODING 113
SWIDTH 583 0
DWIDTH 28 0
BBX 23 34 2 -9
BITMAP
03FE3E
0FFF3E
1FFFFE
3F01FE
3E00FE
7C007E
7C007E
F8003E
F8003E
F8003E
F8003E
F8003E
F8003E
F8003E
F8003E
F8003E
F8003E
7C007E
7C007E
3E00FE
3F01FE
1FFFFE
0FFFBE
03FE3E
00003E
00003E
00003E
00003E
00003E
00003E
00003E
00003E
00003E
00003E
ENDCHAR
STARTCHAR 0072
ENCODING 114
SWIDTH 354 0
DWIDTH 17 0
BBX 13 24 3 0
BITMAP
F8F8
FBF8
FFF8
FFF8
FF80
FE00
FC00
F800
F800
F800
F800
F800
F800
F800
F800
F800
F800
F800
F800
F800
F800
F800
F800
F800
ENDCHAR
STARTCHAR 0073
ENCODING 115
SWIDTH 500 0
DWIDTH 24 0
BBX 19 24 2 1
BITMAP
0FFE00
1FFF80
3FFFC0
7C07C0
7803C0
7803C0
7803C0
780000
7C0000
7F8000
3FF800
1FFF00
07FFC0
007FE0
0007E0
0003E0
0001E0
F801E0
F801E0
F803E0
7C07E0
7FFFC0
3FFF80
0FFE00
ENDCHAR
STARTCHAR 0074
ENCODING 116
SWIDTH 333 0
DWIDTH 16 0
BBX 14 31 1 0
BITMAP
0080
0380
0F80
0F80
0F80
0F80
0F80
FFFC
FFFC
FFFC
0F80
0F80
0F80
0F80
0F80
0F80
0F80
0F80
0F80
0F80
0F80
0F80
0F80
0F80
0F80
0F80
0F80
0F80
07FC
07FC
03FC
ENDCHAR
STARTCHAR 0075
ENCODING 117
SWIDTH 562 0
DWIDTH 27 0
BBX 21 24 3 0
BITMAP
F800F8
F800F8
F800F8
F800F8
F800F8
F800F8
F800F8
F800F8
F800F8
F800F8
F800F8
F800F8
F800F8
F800F8
F800F8
F800F8
F800F8
F800F8
F800F8
7C01F8
7E03F8
3FFFF8
3FFEF8
0FFCF8
ENDCHAR
STARTCHAR 0076
ENCODING 118
SWIDTH 541 0
DWIDTH 26 0
BBX 24 24 1 0
BITMAP
F8001F
F8001E
7C003E
7C003E
3E003C
3E007C
3E0078
1F00F8
1F00F0
0F80F0
0F81F0
0F81E0
07C1E0
07C3C0
03C3C0
03E7C0
01E780
01F780
01FF00
00FF00
00FF00
007E00
007E00
007C00
ENDCHAR
STARTCHAR 0077
ENCODING 119
SWIDTH 812 0
DWIDTH 39 0
BBX 37 24 1 0
BITMAP
F801FC0078
F801FC00F8
7801FC00F8
7801FC00F0
7C03DE01F0
3C03DE01E0
3C03DE01E0
3E078F03E0
1E078F03C0
1E078F03C0
1F0F8783C0
0F0F078780
0F0F078780
0F0F03C780
079E03CF00
079E03CF00
079E01CF00
03FC01FE00
03FC01FE00
03FC01FE00
01F800FC00
01F800FC00
01F800FC00
00F0007800
ENDCHAR
STARTCHAR 0078
ENCODING 120
SWIDTH 541 0
DWIDTH 26 0
BBX 24 24 1 0
BITMAP
7E003E
3E003E
1F007C
1F80F8
0F81F0
07C1E0
03E3E0
03F7C0
01F780
00FF00
007F00
007E00
007E00
00FF00
01FF80
03E7C0
03C7E0
07C3E0
0F81F0
1F01F8
1F00FC
3E007C
7C003E
F8003F
ENDCHAR
STARTCHAR 0079
ENCODING 121
SWIDTH 541 0
DWIDTH 26 0
BBX 24 34 1 -10
BITMAP
F8001F
F8001E
7C003E
7C003E
3E003C
3E007C
3E0078
1F00F8
1F00F8
0F80F0
0F81F0
0781F0
07C1E0
07C3E0
03E3C0
03E7C0
01F7C0
01F780
00FF80
00FF00
00FF00
007F00
007E00
003E00
003E00
003C00
007C00
007800
00F800
00F800
00F000
01F000
01E000
01E000
ENDCHAR
STARTCHAR 007A
ENCODING 122
SWIDTH 458 0
DWIDTH 22 0
BBX 18 24 2 0
BITMAP
7FFFC0
7FFFC0
7FFFC0
0007C0
000F80
001F80
003F00
003E00
007C00
00FC00
01F800
01F000
03E000
07E000
0FC000
0F8000
1F0000
3F0000
7E0000
7C0000
F80000
FFFFC0
FFFFC0
FFFFC0
ENDCHAR
STARTCHAR 007B
ENCODING 123
SWIDTH 500 0
DWIDTH 24 0
BBX 16 48 4 -12
BITMAP
001F
007F
00FF
01F8
01F0
03E0
03E0
03C0
03C0
03C0
03C0
03C0
03C0
03C0
03C0
03C0
03C0
03C0
07C0
0780
0F80
3F00
FF00
FE00
FE00
FF00
3F00
0F80
0780
07C0
03C0
03C0
03C0
03C0
03C0
03C0
03C0
03C0
03C0
03C0
03C0
03E0
01E0
01F0
01F8
00FF
007F
001F
ENDCHAR
STARTCHAR 007C
ENCODING 124
SWIDTH 333 0
DWIDTH 16 0
BBX 2 51 7 -13
BITMAP
C0
C0
C0
C0
C0
C0
C0
C0
C0
C0
C0
C0
C0
C0
C0
C0
C0
C0
C0
C0
C0
C0
C0
C0
C0
C0
C0
C0
C0
C0
C0
C0
C0
C0
C0
C0
C0
C0
C0
C0
C0
C0
C0
C0
C0
C0
C0
C0
C0
C0
C0
ENDCHAR
STARTCHAR 007D
ENCODING 125
SWIDTH 500 0
DWIDTH 24 0
BBX 16 48 4 -12
BITMAP
F800
FE00
FF00
1F80
0F80
0780
07C0
03C0
03C0
03C0
03C0
03C0
03C0
03C0
03C0
03C0
03C0
03C0
03E0
01E0
01F0
00FC
00FF
007F
007F
00FF
00FC
01F0
01E0
03E0
03C0
03C0
03C0
03C0
03C0
03C0
03C0
03C0
03C0
03C0
03C0
07C0
0780
0F80
1F80
FF00
FE00
F800
ENDCHAR
STARTCHAR 007E
ENCODING 126
SWIDTH 541 0
DWIDTH 26 0
BBX 25 5 0 10
BITMAP
07F00780
1FFF1F80
3FFFFF00
7C3FFE00
F803F800
ENDCHAR
STARTCHAR 00A0
ENCODING 160
SWIDTH 291 0
DWIDTH 14 0
BBX 0 0 0 0
BITMAP
ENDCHAR
STARTCHAR 00A1
ENCODING 161
SWIDTH 375 0
DWIDTH 18 0
BBX 5 34 7 -10
BITMAP
F8
F8
F8
F8
F8
00
00
00
F8
F8
F8
F8
F8
F8
F8
F8
F8
F8
F8
F8
F8
F8
F8
F8
F8
F8
F8
F8
F8
F8
F8
F8
F8
F8
ENDCHAR
STARTCHAR 00A2
ENCODING 162
SWIDTH 541 0
DWIDTH 26 0
BBX 20 37 3 -7
BITMAP
000300
000380
000300
000700
000700
000600
07FF00
1FFF80
3FFFC0
3E0FE0
7C1DE0
7C19F0
7819F0
F83800
F83000
F83000
F87000
F87000
F86000
F8E000
F8E000
F8C000
F8C1F0
79C1F0
7D81F0
7D83E0
3F87E0
1FFFC0
0FFF80
07FE00
060000
060000
0E0000
0C0000
0C0000
1C0000
040000
ENDCHAR
STARTCHAR 00A3
ENCODING 163
SWIDTH 562 0
DWIDTH 27 0
BBX 24 36 2 0
BITMAP
000400
00FFE0
03FFF8
07FFFC
0FC07E
0F803E
1F001F
1F001F
1F0000
1F0000
1F0000
1F0000
1F0000
1F0000
FFFF00
FFFF00
FFFF00
1F0000
1F0000
1F0000
1F0000
1F0000
1F0000
1F0000
1F0000
1F0000
1F0000
1F0000
1F0000
1F0000
1F0000
1F0000
1F0000
FFFFFE
FFFFFE
FFFFFE
ENDCHAR
STARTCHAR 00A4
ENCODING 164
SWIDTH 625 0
DWIDTH 30 0
BBX 26 26 2 8
BITMAP
40000080
E00001C0
70000380
383F0700
1CFFCE00
0FFFFC00
07E1F800
07807800
0F003C00
0E001C00
1C000E00
1C000E00
1C000E00
1C000E00
1C000E00
1C000E00
1C000E00
0E001C00
0F003C00
07807800
0FE1FC00
1FFFFE00
3CFFCE00
383F0700
70000380
60000180
ENDCHAR
STARTCHAR 00A5
ENCODING 165
SWIDTH 583 0
DWIDTH 28 0
BBX 26 35 1 0
BITMAP
F80007C0
F8000FC0
7C000F80
7C000F80
3E001F00
3E001F00
1F003E00
1F003E00
0F807C00
0F807C00
0780F800
FFC0FFC0
FFC1FFC0
FFE1FFC0
03E3E000
01F3E000
00F7C000
00FFC000
007F8000
FFFFFFC0
FFFFFFC0
003E0000
003E0000
003E0000
003E0000
003E0000
003E0000
003E0000
003E0000
003E0000
003E0000
003E0000
003E0000
003E0000
003E0000
ENDCHAR
STARTCHAR 00A6
ENCODING 166
SWIDTH 333 0
DWIDTH 16 0
BBX 2 46 7 -10
BITMAP
C0
C0
C0
C0
C0
C0
C0
C0
C0
C0
C0
C0
C0
C0
C0
C0
C0
C0
C0
C0
00
00
00
00
00
00
C0
C0
C0
C0
C0
C0
C0
C0
C0
C0
C0
C0
C0
C0
C0
C0
C0
C0
C0
C0
ENDCHAR
STARTCHAR 00A7
ENCODING 167
SWIDTH 458 0
DWIDTH 22 0
BBX 18 44 2 -8
BITMAP
07FE00
0FFF00
1FFF00
3E0300
3C0000
7C0000
7C0000
7C0000
7C0000
7E0000
3F0000
3F8000
1FE000
0FF000
03FC00
0FFE00
3FFF00
3E1F80
7C0F80
780780
F807C0
F80780
F80780
F80F80
FC1F00
7F7E00
7FFC00
3FF000
0FF800
07FC00
00FE00
007F00
001F80
000F80
000780
000780
000780
000780
000F80
401F00
707E00
7FFC00
7FF800
0FE000
ENDCHAR
STARTCHAR 00A8
ENCODING 168
SWIDTH 291 0
DWIDTH 14 0
BBX 14 4 0 31
BITMAP
F87C
F87C
F87C
F87C
ENDCHAR
STARTCHAR 00A9
ENCODING 169
SWIDTH 875 0
DWIDTH 42 0
BBX 36 35 3 1
BITMAP
000FFF0000
003FFFC000
00FFFFF000
01F801F800
03C0003C00
0780001E00
0E03FC0700
1C0FFF0380
383FFF83C0
387F0FC1C0
707C03C0E0
70F801E0E0
60F801E060
E0F801E070
E0F0000070
C0F0000030
C1F0000030
C1F0000030
C0F0000030
C0F0000030
C0F0000030
E0F001E070
60F801E060
60F803E060
707C03C0E0
303F0FC0C0
383FFF81C0
1C0FFF0380
0E03FC0700
0700000E00
0380001C00
01E0007800
00FC03F000
003FFFC000
000FFF0000
ENDCHAR
STARTCHAR 00AA
ENCODING 170
SWIDTH 395 0
DWIDTH 19 0
BBX 17 23 1 12
BITMAP
07F000
1FFC00
1E3C00
380E00
380E00
000E00
000E00
03FE00
1FFE00
3F0E00
380E00
700E00
700E00
701E00
701E00
3C7E00
1FEE00
0FCF00
000000
000000
000000
FFFF80
FFFF80
ENDCHAR
STARTCHAR 00AB
ENCODING 171
SWIDTH 562 0
DWIDTH 27 0
BBX 19 19 4 3
BITMAP
03C1E0
0783C0
0F03C0
0F0780
1E0F80
3E0F00
3C1E00
783E00
F83C00
F07800
F83C00
783E00
3C1E00
3E0F00
1E0F80
0F0780
0F03C0
0783C0
03C1E0
ENDCHAR
STARTCHAR 00AC
ENCODING 172
SWIDTH 625 0
DWIDTH 30 0
BBX 26 11 2 10
BITMAP
FFFFFFC0
FFFFFFC0
FFFFFFC0
000001C0
000001C0
000001C0
000001C0
000001C0
000001C0
000001C0
000001C0
ENDCHAR
STARTCHAR 00AE
ENCODING 174
SWIDTH 875 0
DWIDTH 42 0
BBX 36 35 3 1
BITMAP
000FFF0000
003FFFC000
00FFFFF000
01F801F800
03C0003C00
079FFE1E00
0E1FFF8700
1C1FFFC380
3C1C03E3C0
381C00E1C0
701C00E0E0
701C00E0E0
601C00E060
E01C01E070
E01C03C070
C01FFF8030
C01FFE0030
C01FFF8030
C01C03C030
C01C01C030
C01C01C030
E01C01C070
601C01C060
601C00E060
701C00E0E0
301C00E0C0
381C00E1C0
181C00E380
0C00000300
0600000E00
0380001C00
01C0003800
00F801F000
003FFFC000
000FFF0000
ENDCHAR
STARTCHAR 00AF
ENCODING 175
SWIDTH 291 0
DWIDTH 14 0
BBX 14 3 0 31
BITMAP
FFFC
FFFC
FFFC
ENDCHAR
STARTCHAR 00B0
ENCODING 176
SWIDTH 312 0
DWIDTH 15 0
BBX 11 11 2 24
BITMAP
1F00
3F80
71C0
C0E0
C060
C060
C060
E0E0
71C0
3F80
1F00
ENDCHAR
STARTCHAR 00B1
ENCODING 177
SWIDTH 1020 0
DWIDTH 49 0
BBX 29 29 10 0
BITMAP
00070000
00070000
00070000
00070000
00070000
00070000
00070000
00070000
00070000
FFFFFFF8
FFFFFFF8
FFFFFFF8
00070000
00070000
00070000
00070000
00070000
00070000
00070000
00070000
00070000
00000000
00000000
00000000
00000000
00000000
FFFFFFF8
FFFFFFF8
FFFFFFF8
ENDCHAR
STARTCHAR 00B2
ENCODING 178
SWIDTH 354 0
DWIDTH 17 0
BBX 14 19 1 17
BITMAP
1FE0
3FF8
7FF8
787C
703C
003C
003C
0078
0078
01F0
03E0
07C0
0F80
1E00
7C00
F800
FFFC
FFFC
FFFC
ENDCHAR
STARTCHAR 00B3
ENCODING 179
SWIDTH 375 0
DWIDTH 18 0
BBX 14 19 2 17
BITMAP
1FF0
7FF8
7FFC
F07C
E03C
003C
003C
00F8
07F0
07C0
07F8
0078
001C
E01C
E01C
F07C
FFF8
7FF0
1FC0
ENDCHAR
STARTCHAR 00B4
ENCODING 180
SWIDTH 229 0
DWIDTH 11 0
BBX 9 9 3 29
BITMAP
0F80
0F00
1F00
1E00
3C00
3800
7800
F000
E000
ENDCHAR
STARTCHAR 00B6
ENCODING 182
SWIDTH 562 0
DWIDTH 27 0
BBX 21 43 3 -8
BITMAP
03FFF8
0FFFF8
1FE0C0
3FE0C0
7FE0C0
FFE0C0
FFE0C0
FFE0C0
FFE0C0
FFE0C0
FFE0C0
FFE0C0
FFE0C0
FFE0C0
7FE0C0
3FE0C0
1FE0C0
03E0C0
0060C0
0060C0
0060C0
0060C0
0060C0
0060C0
0060C0
0060C0
0060C0
0060C0
0060C0
0060C0
0060C0
0060C0
0060C0
0060C0
0060C0
0060C0
0060C0
0060C0
0060C0
0060C0
0060C0
0060C0
0060C0
ENDCHAR
STARTCHAR 00B7
ENCODING 183
SWIDTH 270 0
DWIDTH 13 0
BBX 5 6 4 14
BITMAP
F8
F8
F8
F8
F8
F8
ENDCHAR
STARTCHAR 00B8
ENCODING 184
SWIDTH 250 0
DWIDTH 12 0
BBX 12 12 2 -12
BITMAP
1800
1800
1800
1FC0
1FE0
01F0
00F0
0070
0070
C1E0
FFC0
FF00
ENDCHAR
STARTCHAR 00B9
ENCODING 185
SWIDTH 291 0
DWIDTH 14 0
BBX 7 19 3 16
BITMAP
1E
3E
7E
FE
CE
0E
0E
0E
0E
0E
0E
0E
0E
0E
0E
0E
0E
0E
0E
ENDCHAR
STARTCHAR 00BA
ENCODING 186
SWIDTH 437 0
DWIDTH 21 0
BBX 17 23 2 12
BITMAP
07E000
1FF800
3C3C00
781E00
700E00
F00F00
E00700
E00700
E00700
E00700
E00700
E00700
F00F00
700E00
781E00
3C3C00
1FF800
07E000
000000
000000
000000
FFFF80
FFFF80
ENDCHAR
STARTCHAR 00BB
ENCODING 187
SWIDTH 562 0
DWIDTH 27 0
BBX 19 19 4 3
BITMAP
F07800
F03C00
783C00
3C1E00
3C0F00
1E0F00
1F0780
0F07C0
0783E0
07C1E0
0783E0
0F87C0
1F0780
1E0F00
3C0F00
3C1E00
783C00
F03C00
F07800
ENDCHAR
STARTCHAR 00BC
ENCODING 188
SWIDTH 812 0
DWIDTH 39 0
BBX 33 36 3 0
BITMAP
0000038000
1E00038000
3E00070000
FE00070000
EE000E0000
CE001E0000
0E001C0000
0E003C0000
0E00380000
0E00700000
0E00700000
0E00E00000
0E00E00000
0E01C00000
0E01C00000
0E03800000
0E07800000
0E0700F000
0E0E00F000
0E0E01F000
001C03F000
001C03F000
0038077000
0038077000
00700E7000
00F01C7000
00E0187000
01E0387000
01C0707000
03807FFF80
03807FFF80
07007FFF80
0700007000
0E00007000
1E00007000
1C00007000
ENDCHAR
STARTCHAR 00BD
ENCODING 189
SWIDTH 812 0
DWIDTH 39 0
BBX 33 36 3 0
BITMAP
000001C000
1E0003C000
3E00038000
FE00070000
EE00070000
CE000E0000
0E001E0000
0E001C0000
0E003C0000
0E00380000
0E00700000
0E00700000
0E00E00000
0E01E00000
0E01C00000
0E03C00000
0E03800000
0E0701F800
0E0707FE00
0E0E07FF00
000E0F0F80
001C0E0780
003C1E0780
0038000780
0070000F80
0070000F00
00E0001E00
00E0007C00
01C000F800
03C001F000
038003C000
07000F8000
07001F0000
0E001FFF80
0E001FFF80
1C001FFF80
ENDCHAR
STARTCHAR 00BE
ENCODING 190
SWIDTH 812 0
DWIDTH 39 0
BBX 35 36 2 0
BITMAP
0000003C00
1FF0003800
7FF8007800
7FFC007000
F03C00F000
E03C00E000
003C01C000
007803C000
07F0038000
07E0078000
07F8070000
00780F0000
001C0E0000
E01C1C0000
E01C3C0000
F07C380000
FFF8780000
3FF0701E00
1FC0E01E00
0000E03E00
0001C07E00
0003C0EE00
000380EE00
000781CE00
0007038E00
000E030E00
000E070E00
001C0E0E00
003C1C0E00
00381FFFE0
00781FFFE0
00701FFFE0
00E0000E00
00E0000E00
01C0000E00
03C0000E00
ENDCHAR
STARTCHAR 00BF
ENCODING 191
SWIDTH 520 0
DWIDTH 25 0
BBX 21 34 3 -10
BITMAP
007C00
007C00
007C00
007C00
007C00
000000
000000
000000
003C00
003C00
003C00
003C00
003C00
003C00
007C00
00F800
01F000
07E000
0FC000
1F0000
3E0000
7C0000
780000
F80000
F80000
F80000
F80070
FC00F8
7F01F0
7FFFF0
3FFFE0
1FFFC0
07FF80
01FC00
ENDCHAR
STARTCHAR 00C0
ENCODING 192
SWIDTH 750 0
DWIDTH 36 0
BBX 34 49 1 0
BITMAP
007C000000
003E000000
001E000000
000F000000
000F000000
0007800000
0003C00000
0001C00000
0000E00000
0000000000
0000000000
0000000000
0000000000
0000000000
0003F00000
0003F00000
0007F80000
0007F80000
000FF80000
000FFC0000
000F7C0000
001F3E0000
001E3E0000
003E1F0000
003E1F0000
007C1F0000
007C0F8000
00780F8000
00F807C000
00F807C000
01F003E000
01F003E000
01E003E000
03E001F000
03E001F000
07FFFFF800
07FFFFF800
0FFFFFF800
0FFFFFFC00
0F00003C00
1F00003E00
1F00003E00
3E00001F00
3E00001F00
3C00001F00
7C00000F80
7C00000F80
F8000007C0
F8000007C0
ENDCHAR
STARTCHAR 00C1
ENCODING 193
SWIDTH 750 0
DWIDTH 36 0
BBX 34 49 1 0
BITMAP
00000F8000
00001F0000
00001E0000
00003C0000
00003C0000
0000780000
0000F00000
0000E00000
0001C00000
0000000000
0000000000
0000000000
0000000000
0000000000
0003F00000
0003F00000
0007F80000
0007F80000
000FF80000
000FFC0000
000F7C0000
001F3E0000
001E3E0000
003E1F0000
003E1F0000
007C1F0000
007C0F8000
00780F8000
00F807C000
00F807C000
01F003E000
01F003E000
01E003E000
03E001F000
03E001F000
07FFFFF800
07FFFFF800
0FFFFFF800
0FFFFFFC00
0F00003C00
1F00003E00
1F00003E00
3E00001F00
3E00001F00
3C00001F00
7C00000F80
7C00000F80
F8000007C0
F8000007C0
ENDCHAR
STARTCHAR 00C2
ENCODING 194
SWIDTH 750 0
DWIDTH 36 0
BBX 34 49 1 0
BITMAP
0003F00000
0003F00000
0007F80000
0007F80000
000F3C0000
000F3C0000
001E1E0000
001C0E0000
0038070000
0000000000
0000000000
0000000000
0000000000
0000000000
0003F00000
0003F00000
0007F80000
0007F80000
000FF80000
000FFC0000
000F7C0000
001F3E0000
001E3E0000
003E1F0000
003E1F0000
007C1F0000
007C0F8000
00780F8000
00F807C000
00F807C000
01F003E000
01F003E000
01E003E000
03E001F000
03E001F000
07FFFFF800
07FFFFF800
0FFFFFF800
0FFFFFFC00
0F00003C00
1F00003E00
1F00003E00
3E00001F00
3E00001F00
3C00001F00
7C00000F80
7C00000F80
F8000007C0
F8000007C0
ENDCHAR
STARTCHAR 00C3
ENCODING 195
SWIDTH 750 0
DWIDTH 36 0
BBX 34 46 1 0
BITMAP
000F870000
001FE70000
001FFE0000
0039FE0000
00387C0000
0000000000
0000000000
0000000000
0000000000
0000000000
0000000000
0003F00000
0003F00000
0007F80000
0007F80000
000FF80000
000FFC0000
000F7C0000
001F3E0000
001E3E0000
003E1F0000
003E1F0000
007C1F0000
007C0F8000
00780F8000
00F807C000
00F807C000
01F003E000
01F003E000
01E003E000
03E001F000
03E001F000
07FFFFF800
07FFFFF800
0FFFFFF800
0FFFFFFC00
0F00003C00
1F00003E00
1F00003E00
3E00001F00
3E00001F00
3C00001F00
7C00000F80
7C00000F80
F8000007C0
F8000007C0
ENDCHAR
STARTCHAR 00C4
ENCODING 196
SWIDTH 750 0
DWIDTH 36 0
BBX 35 46 1 0
BITMAP
001F0F8000
001F0F8000
001F0F8000
001F0F8000
001F0F8000
0000000000
0000000000
0000000000
0000000000
0000000000
0000000000
0001F00000
0003F00000
0003F80000
0007F80000
0007FC0000
000FFC0000
000FBE0000
000F3E0000
001F1E0000
001F1F0000
003E1F0000
003E0F8000
003C0F8000
007C07C000
007807C000
00F803C000
00F803E000
01F003E000
01F001F000
01E001F000
03E000F800
03FFFFF800
07FFFFF800
07FFFFFC00
0FFFFFFC00
0F80003E00
0F00003E00
1F00001F00
1F00001F00
3E00000F00
3E00000F80
3C00000F80
7C000007C0
7C000007C0
F8000007E0
ENDCHAR
STARTCHAR 00C5
ENCODING 197
SWIDTH 750 0
DWIDTH 36 0
BBX 34 51 1 0
BITMAP
0003E00000
0007F00000
000E380000
001C1C0000
00180C0000
00180C0000
00180C0000
00181C0000
000E380000
0007F00000
0003E00000
0000000000
0000000000
0000000000
0000000000
0000000000
0003F00000
0007F00000
0007F80000
0007F80000
000FFC0000
000FFC0000
001F7C0000
001F3E0000
003E3E0000
003E1F0000
003E1F0000
007C1F0000
007C0F8000
00F80F8000
00F807C000
00F007C000
01F003E000
01F003E000
03E003E000
03E001F000
07C001F000
07FFFFF800
07FFFFF800
0FFFFFFC00
0FFFFFFC00
1F00003C00
1F00003E00
1E00003E00
3E00001F00
3C00001F00
7C00000F00
7C00000F80
F800000F80
F8000007C0
F8000007C0
ENDCHAR
STARTCHAR 00C6
ENCODING 198
SWIDTH 979 0
DWIDTH 47 0
BBX 43 35 1 0
BITMAP
00003FFFFFE0
00007FFFFFE0
00007FFFFFE0
0000FFFFFFE0
0000FFC00000
0001F7C00000
0001F7C00000
0003E7C00000
0003E7C00000
0007C7C00000
0007C7C00000
000F87C00000
001F87C00000
001F07C00000
003F07C00000
003E07FFFFC0
007E07FFFFC0
007C07FFFFC0
00FC07FFFFC0
00F807C00000
01F807C00000
01FFFFC00000
03FFFFC00000
03FFFFC00000
07FFFFC00000
07C007C00000
0F8007C00000
0F8007C00000
1F0007C00000
1F0007C00000
3E0007C00000
7E0007FFFFE0
7C0007FFFFE0
FC0007FFFFE0
F80007FFFFE0
ENDCHAR
STARTCHAR 00C7
ENCODING 199
SWIDTH 666 0
DWIDTH 32 0
BBX 26 47 3 -11
BITMAP
007FF000
01FFFC00
07FFFF00
0FFFFF00
1FC01F80
1F0007C0
3E0007C0
3E0003C0
7C0003C0
7C0003C0
78000000
78000000
F8000000
F8000000
F8000000
F8000000
F8000000
F8000000
F8000000
F8000000
F8000000
F8000000
F8000000
78000000
78000000
78000000
7C0003C0
3C0003C0
3E0007C0
1F0007C0
1F801F80
0FFFFF00
07FFFF00
01FFFC00
00FFF800
00060000
00060000
00060000
0007E000
0007F800
00007800
00003C00
00001C00
00001C00
00307C00
003FF800
003FE000
ENDCHAR
STARTCHAR 00C8
ENCODING 200
SWIDTH 604 0
DWIDTH 29 0
BBX 22 49 4 0
BITMAP
0F8000
078000
07C000
03C000
01E000
00E000
00F000
007800
003800
000000
000000
000000
000000
000000
FFFFFC
FFFFFC
FFFFFC
FFFFFC
F80000
F80000
F80000
F80000
F80000
F80000
F80000
F80000
F80000
F80000
F80000
FFFFF8
FFFFF8
FFFFF8
FFFFF8
F80000
F80000
F80000
F80000
F80000
F80000
F80000
F80000
F80000
F80000
F80000
F80000
FFFFFC
FFFFFC
FFFFFC
FFFFFC
ENDCHAR
STARTCHAR 00C9
ENCODING 201
SWIDTH 604 0
DWIDTH 29 0
BBX 22 49 4 0
BITMAP
0007C0
000F80
000F00
001F00
001E00
003C00
003800
007000
00F000
000000
000000
000000
000000
000000
FFFFFC
FFFFFC
FFFFFC
FFFFFC
F80000
F80000
F80000
F80000
F80000
F80000
F80000
F80000
F80000
F80000
F80000
FFFFF8
FFFFF8
FFFFF8
FFFFF8
F80000
F80000
F80000
F80000
F80000
F80000
F80000
F80000
F80000
F80000
F80000
F80000
FFFFFC
FFFFFC
FFFFFC
FFFFFC
ENDCHAR
STARTCHAR 00CA
ENCODING 202
SWIDTH 604 0
DWIDTH 29 0
BBX 22 49 4 0
BITMAP
00F800
01FC00
01FC00
03FE00
03DE00
078F00
070700
0E0380
0E0380
000000
000000
000000
000000
000000
FFFFFC
FFFFFC
FFFFFC
FFFFFC
F80000
F80000
F80000
F80000
F80000
F80000
F80000
F80000
F80000
F80000
F80000
FFFFF8
FFFFF8
FFFFF8
FFFFF8
F80000
F80000
F80000
F80000
F80000
F80000
F80000
F80000
F80000
F80000
F80000
F80000
FFFFFC
FFFFFC
FFFFFC
FFFFFC
ENDCHAR
STARTCHAR 00CB
ENCODING 203
SWIDTH 604 0
DWIDTH 29 0
BBX 22 46 4 0
BITMAP
1F07C0
1F07C0
1F07C0
1F07C0
1F07C0
000000
000000
000000
000000
000000
000000
FFFFFC
FFFFFC
FFFFFC
FFFFFC
F80000
F80000
F80000
F80000
F80000
F80000
F80000
F80000
F80000
F80000
F80000
FFFFF8
FFFFF8
FFFFF8
FFFFF8
F80000
F80000
F80000
F80000
F80000
F80000
F80000
F80000
F80000
F80000
F80000
F80000
FFFFFC
FFFFFC
FFFFFC
FFFFFC
ENDCHAR
STARTCHAR 00CC
ENCODING 204
SWIDTH 250 0
DWIDTH 12 0
BBX 9 49 0 0
BITMAP
F000
F800
7C00
3C00
1E00
1E00
0F00
0700
0380
0000
0000
0000
0000
0000
0F80
0F80
0F80
0F80
0F80
0F80
0F80
0F80
0F80
0F80
0F80
0F80
0F80
0F80
0F80
0F80
0F80
0F80
0F80
0F80
0F80
0F80
0F80
0F80
0F80
0F80
0F80
0F80
0F80
0F80
0F80
0F80
0F80
0F80
0F80
ENDCHAR
STARTCHAR 00CD
ENCODING 205
SWIDTH 250 0
DWIDTH 12 0
BBX 9 49 4 0
BITMAP
0F80
0F00
1E00
3E00
3C00
7800
7000
E000
E000
0000
0000
0000
0000
0000
F800
F800
F800
F800
F800
F800
F800
F800
F800
F800
F800
F800
F800
F800
F800
F800
F800
F800
F800
F800
F800
F800
F800
F800
F800
F800
F800
F800
F800
F800
F800
F800
F800
F800
F800
ENDCHAR
STARTCHAR 00CE
ENCODING 206
SWIDTH 250 0
DWIDTH 12 0
BBX 13 49 0 0
BITMAP
0F80
1F80
1FC0
3FC0
3DE0
78E0
70F0
E070
E038
0000
0000
0000
0000
0000
0F80
0F80
0F80
0F80
0F80
0F80
0F80
0F80
0F80
0F80
0F80
0F80
0F80
0F80
0F80
0F80
0F80
0F80
0F80
0F80
0F80
0F80
0F80
0F80
0F80
0F80
0F80
0F80
0F80
0F80
0F80
0F80
0F80
0F80
0F80
ENDCHAR
STARTCHAR 00CF
ENCODING 207
SWIDTH 250 0
DWIDTH 12 0
BBX 14 46 -1 0
BITMAP
F87C
F87C
F87C
F87C
F87C
0000
0000
0000
0000
0000
0000
0F80
0F80
0F80
0F80
0F80
0F80
0F80
0F80
0F80
0F80
0F80
0F80
0F80
0F80
0F80
0F80
0F80
0F80
0F80
0F80
0F80
0F80
0F80
0F80
0F80
0F80
0F80
0F80
0F80
0F80
0F80
0F80
0F80
0F80
0F80
ENDCHAR
STARTCHAR 00D0
ENCODING 208
SWIDTH 708 0
DWIDTH 34 0
BBX 32 35 0 0
BITMAP
0FFFE000
0FFFFE00
0FFFFF80
0FFFFFC0
0F801FE0
0F8007F0
0F8001F8
0F8000F8
0F80007C
0F80007C
0F80003E
0F80003E
0F80003E
0F80001E
0F80001E
FFFF801E
FFFF801E
FFFF801F
FFFF801E
0F80001E
0F80001E
0F80001E
0F80003E
0F80003E
0F80003C
0F80007C
0F8000FC
0F8000F8
0F8001F8
0F8007F0
0F801FE0
0FFFFFC0
0FFFFF80
0FFFFE00
0FFFE000
ENDCHAR
STARTCHAR 00D1
ENCODING 209
SWIDTH 729 0
DWIDTH 35 0
BBX 27 46 4 0
BITMAP
00F87000
01FE7000
01FFF000
03DFE000
0383C000
00000000
00000000
00000000
00000000
00000000
00000000
FE0003E0
FE0003E0
FF0003E0
FF8003E0
FF8003E0
FFC003E0
FFC003E0
FFE003E0
FBE003E0
FBF003E0
F9F003E0
F9F803E0
F8FC03E0
F8FC03E0
F87E03E0
F83E03E0
F83F03E0
F81F03E0
F81F83E0
F80F83E0
F80FC3E0
F807E3E0
F807E3E0
F803F3E0
F801F3E0
F801FBE0
F800FBE0
F800FFE0
F8007FE0
F8007FE0
F8003FE0
F8003FE0
F8001FE0
F8000FE0
F8000FE0
ENDCHAR
STARTCHAR 00D2
ENCODING 210
SWIDTH 770 0
DWIDTH 37 0
BBX 31 49 3 0
BITMAP
007C0000
007C0000
003E0000
001E0000
000F0000
00070000
00078000
0003C000
0001C000
00000000
00000000
00000000
00000000
00000000
007FFC00
01FFFF00
03FFFF80
07FFFFC0
0FC007E0
1F8003F0
3F0000F8
3E0000F8
7C00007C
7C00007C
7800003C
7800003C
F800003E
F800003E
F800003E
F800003E
F800003E
F800003E
F800003E
F800003E
F800003E
F800003E
7800003C
7800003C
7C00007C
7C00007C
3C0000F8
3E0000F8
1F0001F0
0F8003F0
0FE00FE0
07FFFFC0
03FFFF80
00FFFE00
003FF800
ENDCHAR
STARTCHAR 00D3
ENCODING 211
SWIDTH 770 0
DWIDTH 37 0
BBX 31 49 3 0
BITMAP
00007C00
00007C00
0000F800
0000F000
0001E000
0001C000
0003C000
00078000
00070000
00000000
00000000
00000000
00000000
00000000
007FFC00
01FFFF00
03FFFF80
07FFFFC0
0FC007E0
1F8003F0
3F0000F8
3E0000F8
7C00007C
7C00007C
7800003C
7800003C
F800003E
F800003E
F800003E
F800003E
F800003E
F800003E
F800003E
F800003E
F800003E
F800003E
7800003C
7800003C
7C00007C
7C00007C
3C0000F8
3E0000F8
1F0001F0
0F8003F0
0FE00FE0
07FFFFC0
03FFFF80
00FFFE00
003FF800
ENDCHAR
STARTCHAR 00D4
ENCODING 212
SWIDTH 770 0
DWIDTH 37 0
BBX 31 49 3 0
BITMAP
0007C000
000FE000
000FE000
001FF000
001EF000
003C7800
00383800
00781C00
00701C00
00000000
00000000
00000000
00000000
00000000
007FFC00
01FFFF00
03FFFF80
07FFFFC0
0FC007E0
1F8003F0
3F0000F8
3E0000F8
7C00007C
7C00007C
7800003C
7800003C
F800003E
F800003E
F800003E
F800003E
F800003E
F800003E
F800003E
F800003E
F800003E
F800003E
7800003C
7800003C
7C00007C
7C00007C
3C0000F8
3E0000F8
1F0001F0
0F8003F0
0FE00FE0
07FFFFC0
03FFFF80
00FFFE00
003FF800
ENDCHAR
STARTCHAR 00D5
ENCODING 213
SWIDTH 770 0
DWIDTH 37 0
BBX 31 46 3 0
BITMAP
001E0E00
003F9C00
007FFC00
0073F800
00E0F000
00000000
00000000
00000000
00000000
00000000
00000000
007FFC00
01FFFF00
03FFFF80
07FFFFC0
0FC007E0
1F8003F0
3F0000F8
3E0000F8
7C00007C
7C00007C
7800003C
7800003C
F800003E
F800003E
F800003E
F800003E
F800003E
F800003E
F800003E
F800003E
F800003E
F800003E
7800003C
7800003C
7C00007C
7C00007C
3C0000F8
3E0000F8
1F0001F0
0F8003F0
0FE00FE0
07FFFFC0
03FFFF80
00FFFE00
003FF800
ENDCHAR
STARTCHAR 00D6
ENCODING 214
SWIDTH 770 0
DWIDTH 37 0
BBX 31 46 3 0
BITMAP
007C1F00
007C1F00
007C1F00
007C1F00
007C1F00
00000000
00000000
00000000
00000000
00000000
00000000
007FFC00
01FFFF00
03FFFF80
07FFFFC0
0FC007E0
1F8003F0
3F0000F8
3E0000F8
7C00007C
7C00007C
7800003C
7800003C
F800003E
F800003E
F800003E
F800003E
F800003E
F800003E
F800003E
F800003E
F800003E
F800003E
7800003C
7800003C
7C00007C
7C00007C
3C0000F8
3E0000F8
1F0001F0
0F8003F0
0FE00FE0
07FFFFC0
03FFFF80
00FFFE00
003FF800
ENDCHAR
STARTCHAR 00D7
ENCODING 215
SWIDTH 1000 0
DWIDTH 48 0
BBX 26 25 11 2
BITMAP
60000180
F00003C0
78000780
3C000F00
1E001E00
0F003C00
07807800
03C0F000
01E1E000
00F3C000
007F8000
003F0000
001E0000
003F0000
007F8000
00F3C000
01E1E000
03C0F000
07807800
0F003C00
1E001E00
3C000F00
78000780
F00003C0
60000180
ENDCHAR
STARTCHAR 00D8
ENCODING 216
SWIDTH 770 0
DWIDTH 37 0
BBX 31 43 3 -5
BITMAP
00000018
0000003C
0000003E
0000007C
007FFCF8
01FFFFF8
03FFFFF0
07FFFFF0
0FC007F0
1F8007F0
3F000FF8
3E000FF8
7C001F7C
7C003F7C
78003E3C
78007C3E
F800FC3E
F800F83E
F801F03E
F803F03E
F803E03E
F807C03E
F80FC03E
F80F803E
F81F003E
F83F003E
F83E003C
787C003C
7CFC007C
7CF8007C
3DF000F8
3FF000F8
1FE001F0
1FC003E0
0FE00FE0
0FFFFFC0
1FFFFF80
3FFFFE00
3E7FF800
7C000000
78000000
F8000000
30000000
ENDCHAR
STARTCHAR 00D9
ENCODING 217
SWIDTH 729 0
DWIDTH 35 0
BBX 28 49 4 0
BITMAP
01F00000
00F00000
00F80000
007C0000
003C0000
001E0000
000E0000
00070000
00070000
00000000
00000000
00000000
00000000
00000000
F80001F0
F80001F0
F80001F0
F80001F0
F80001F0
F80001F0
F80001F0
F80001F0
F80001F0
F80001F0
F80001F0
F80001F0
F80001F0
F80001F0
F80001F0
F80001F0
F80001F0
F80001F0
F80001F0
F80001F0
F80001E0
F80001E0
F80001E0
F80001E0
F80001E0
780003E0
780003E0
7C0003C0
7C0007C0
3E000FC0
3F801F80
1FFFFF00
0FFFFF00
07FFFC00
01FFF000
ENDCHAR
STARTCHAR 00DA
ENCODING 218
SWIDTH 729 0
DWIDTH 35 0
BBX 28 49 4 0
BITMAP
0000F800
0001F000
0003E000
0003C000
00078000
00078000
000F0000
000E0000
001C0000
00000000
00000000
00000000
00000000
00000000
F80001F0
F80001F0
F80001F0
F80001F0
F80001F0
F80001F0
F80001F0
F80001F0
F80001F0
F80001F0
F80001F0
F80001F0
F80001F0
F80001F0
F80001F0
F80001F0
F80001F0
F80001F0
F80001F0
F80001F0
F80001E0
F80001E0
F80001E0
F80001E0
F80001E0
780003E0
780003E0
7C0003C0
7C0007C0
3E000FC0
3F801F80
1FFFFF00
0FFFFF00
07FFFC00
01FFF000
ENDCHAR
STARTCHAR 00DB
ENCODING 219
SWIDTH 729 0
DWIDTH 35 0
BBX 28 49 4 0
BITMAP
001F0000
001F8000
003F8000
007FC000
007BE000
00F1E000
00E0F000
01E07000
01C03800
00000000
00000000
00000000
00000000
00000000
F80001F0
F80001F0
F80001F0
F80001F0
F80001F0
F80001F0
F80001F0
F80001F0
F80001F0
F80001F0
F80001F0
F80001F0
F80001F0
F80001F0
F80001F0
F80001F0
F80001F0
F80001F0
F80001F0
F80001F0
F80001E0
F80001E0
F80001E0
F80001E0
F80001E0
780003E0
780003E0
7C0003C0
7C0007C0
3E000FC0
3F801F80
1FFFFF00
0FFFFF00
07FFFC00
01FFF000
ENDCHAR
STARTCHAR 00DC
ENCODING 220
SWIDTH 729 0
DWIDTH 35 0
BBX 28 45 4 0
BITMAP
01F07C00
01F07C00
01F07C00
01F07C00
00000000
00000000
00000000
00000000
00000000
00000000
F80001F0
F80001F0
F80001F0
F80001F0
F80001F0
F80001F0
F80001F0
F80001F0
F80001F0
F80001F0
F80001F0
F80001F0
F80001F0
F80001F0
F80001F0
F80001F0
F80001F0
F80001F0
F80001F0
F80001F0
F80001E0
F80001E0
F80001E0
F80001E0
F80001E0
780003E0
780003E0
7C0003C0
7C0007C0
3E000FC0
3F801F80
1FFFFF00
0FFFFF00
07FFFC00
01FFF000
ENDCHAR
STARTCHAR 00DD
ENCODING 221
SWIDTH 666 0
DWIDTH 32 0
BBX 30 49 1 0
BITMAP
00003C00
00007C00
0000F800
0000F000
0001E000
0001E000
0003C000
00038000
00070000
00000000
00000000
00000000
00000000
00000000
FC00007C
7E0000F8
3E0001F8
3F0001F0
1F8003F0
0F8003E0
0FC007C0
07C007C0
07E00F80
03E00F80
01F01F00
01F83E00
00F83E00
00FC7C00
007C7C00
003EF800
003EF000
001FF000
001FE000
000FC000
0007C000
0007C000
0007C000
0007C000
0007C000
0007C000
0007C000
0007C000
0007C000
0007C000
0007C000
0007C000
0007C000
0007C000
0007C000
ENDCHAR
STARTCHAR 00DE
ENCODING 222
SWIDTH 625 0
DWIDTH 30 0
BBX 23 35 4 0
BITMAP
F80000
F80000
F80000
F80000
F80000
F80000
FFFE00
FFFFC0
FFFFF0
FFFFF8
F803FC
F800FC
F8007C
F8003E
F8003E
F8003E
F8003E
F8003E
F8003E
F8003E
F8007C
F800FC
F803FC
FFFFF8
FFFFF0
FFFFC0
FFFE00
F80000
F80000
F80000
F80000
F80000
F80000
F80000
F80000
ENDCHAR
STARTCHAR 00DF
ENCODING 223
SWIDTH 583 0
DWIDTH 28 0
BBX 25 35 3 1
BITMAP
03FF0000
0FFFC000
1FFFE000
7F03F000
7C01F000
F800F000
F800F000
F800F000
F800F000
F801F000
F803E000
F80FC000
F81F8000
F83F0000
F83E0000
F83C0000
F83C0000
F83E0000
F83F0000
F81FC000
F80FF000
F807FC00
F801FE00
F8007E00
F8003F00
F8001F00
F8000F00
F8000F80
F9F00F00
F9F00F00
F8F00F00
F8FC1F00
F87FFE00
F83FFC00
F80FF800
ENDCHAR
STARTCHAR 00E0
ENCODING 224
SWIDTH 541 0
DWIDTH 26 0
BBX 22 37 2 0
BITMAP
03C000
03E000
01F000
00F000
007800
003800
001C00
000E00
000000
000000
000000
000000
000000
07FF80
0FFFE0
1FFFF0
3F01F0
3E00F8
3C00F8
7C0078
000078
000078
00FFF8
07FFF8
1FFFF8
3FC0F8
7E00F8
7C00F8
F800F8
F800F8
F800F8
F801F8
F801F8
7C07F8
7FFF78
1FFE78
0FF87C
ENDCHAR
STARTCHAR 00E1
ENCODING 225
SWIDTH 541 0
DWIDTH 26 0
BBX 22 38 2 0
BITMAP
000F80
000F00
001E00
003C00
003C00
007800
007000
00E000
00E000
000000
000000
000000
000000
000000
07FF80
0FFFE0
1FFFF0
3F01F0
3E00F8
3C00F8
7C0078
000078
000078
00FFF8
07FFF8
1FFFF8
3FC0F8
7E00F8
7C00F8
F800F8
F800F8
F800F8
F801F8
F801F8
7C07F8
7FFF78
1FFE78
0FF87C
ENDCHAR
STARTCHAR 00E2
ENCODING 226
SWIDTH 541 0
DWIDTH 26 0
BBX 22 38 2 0
BITMAP
00FC00
00FC00
01FE00
01FE00
03CF00
038700
078380
0F0380
0E01C0
000000
000000
000000
000000
000000
07FF80
0FFFE0
1FFFF0
3F01F0
3E00F8
3C00F8
7C0078
000078
000078
00FFF8
07FFF8
1FFFF8
3FC0F8
7E00F8
7C00F8
F800F8
F800F8
F800F8
F801F8
F801F8
7C07F8
7FFF78
1FFE78
0FF87C
ENDCHAR
STARTCHAR 00E3
ENCODING 227
SWIDTH 541 0
DWIDTH 26 0
BBX 22 35 2 0
BITMAP
03C1C0
07F9C0
07FF80
0F7F80
0E1F00
000000
000000
000000
000000
000000
000000
07FF80
0FFFE0
1FFFF0
3F01F0
3E00F8
3C00F8
7C0078
000078
000078
00FFF8
07FFF8
1FFFF8
3FC0F8
7E00F8
7C00F8
F800F8
F800F8
F800F8
F801F8
F801F8
7C07F8
7FFF78
1FFE78
0FF87C
ENDCHAR
STARTCHAR 00E4
ENCODING 228
SWIDTH 541 0
DWIDTH 26 0
BBX 22 35 2 0
BITMAP
0F87C0
0F87C0
0F87C0
0F87C0
000000
000000
000000
000000
000000
000000
000000
07FF80
0FFFE0
1FFFF0
3F01F0
3E00F8
3C00F8
7C0078
000078
000078
00FFF8
07FFF8
1FFFF8
3FC0F8
7E00F8
7C00F8
F800F8
F800F8
F800F8
F801F8
F801F8
7C07F8
7FFF78
1FFE78
0FF87C
ENDCHAR
STARTCHAR 00E5
ENCODING 229
SWIDTH 541 0
DWIDTH 26 0
BBX 22 40 2 0
BITMAP
007800
00FC00
018600
030300
030300
030300
030300
030300
018600
00FC00
007800
000000
000000
000000
000000
000000
07FF80
0FFFE0
1FFFF0
3F01F0
3E00F8
3C00F8
7C0078
000078
000078
00FFF8
07FFF8
1FFFF8
3FC0F8
7E00F8
7C00F8
F800F8
F800F8
F800F8
F801F8
F801F8
7C07F8
7FFF78
1FFE78
0FF87C
ENDCHAR
STARTCHAR 00E6
ENCODING 230
SWIDTH 895 0
DWIDTH 43 0
BBX 39 24 2 1
BITMAP
07FF00FFC0
1FFFC3FFE0
3FFFC7FFF0
7E01E780F8
7C00FF007C
7C00FE003C
00007E003C
00007C003E
00007C001E
01FFFFFFFE
0FFFFFFFFE
3FFFFFFFFE
7FC07C0000
7E007C0000
F8007C0000
F8007C0000
F8007E003E
F800FE003C
F800EE003C
F801EF007C
7C03C780F8
7FFFC7FFF0
3FFF81FFE0
0FFE00FFC0
ENDCHAR
STARTCHAR 00E7
ENCODING 231
SWIDTH 520 0
DWIDTH 25 0
BBX 20 36 2 -11
BITMAP
07FF00
0FFFC0
1FFFE0
3E03F0
7C01F0
7C00F0
7800F0
F800F0
F80000
F80000
F80000
F80000
F80000
F80000
F80000
F80000
F800F0
7800F0
7C01F0
7C01F0
3E03E0
1FFFE0
0FFFC0
07FF00
006000
006000
006000
007E00
007F80
000780
0003C0
0001C0
0001C0
0307C0
03FF00
03FC00
ENDCHAR
STARTCHAR 00E8
ENCODING 232
SWIDTH 541 0
DWIDTH 26 0
BBX 22 38 2 0
BITMAP
0F8000
07C000
03C000
01E000
00E000
00F000
007800
003800
001C00
000000
000000
000000
000000
000000
03FF80
0FFFC0
1FFFE0
3F01F0
3C00F8
7C0078
78007C
78007C
F8007C
FFFFFC
FFFFFC
FFFFFC
F80000
F80000
F80000
F80000
78007C
78007C
7C00F8
3E00F8
1F01F0
1FFFE0
07FFC0
03FF00
ENDCHAR
STARTCHAR 00E9
ENCODING 233
SWIDTH 541 0
DWIDTH 26 0
BBX 22 38 2 0
BITMAP
000780
000F80
001F00
001E00
003C00
003800
007800
00F000
00E000
000000
000000
000000
000000
000000
03FF80
0FFFC0
1FFFE0
3F01F0
3C00F8
7C0078
78007C
78007C
F8007C
FFFFFC
FFFFFC
FFFFFC
F80000
F80000
F80000
F80000
78007C
78007C
7C00F8
3E00F8
1F01F0
1FFFE0
07FFC0
03FF00
ENDCHAR
STARTCHAR 00EA
ENCODING 234
SWIDTH 541 0
DWIDTH 26 0
BBX 22 38 2 0
BITMAP
00FC00
00FC00
01FE00
03FE00
03CF00
078700
070780
0F0380
0E01C0
000000
000000
000000
000000
000000
03FF80
0FFFC0
1FFFE0
3F01F0
3C00F8
7C0078
78007C
78007C
F8007C
FFFFFC
FFFFFC
FFFFFC
F80000
F80000
F80000
F80000
78007C
78007C
7C00F8
3E00F8
1F01F0
1FFFE0
07FFC0
03FF00
ENDCHAR
STARTCHAR 00EB
ENCODING 235
SWIDTH 541 0
DWIDTH 26 0
BBX 22 35 2 0
BITMAP
0F87C0
0F87C0
0F87C0
0F87C0
000000
000000
000000
000000
000000
000000
000000
03FF80
0FFFC0
1FFFE0
3F01F0
3C00F8
7C0078
78007C
78007C
F8007C
FFFFFC
FFFFFC
FFFFFC
F80000
F80000
F80000
F80000
78007C
78007C
7C00F8
3E00F8
1F01F0
1FFFE0
07FFC0
03FF00
ENDCHAR
STARTCHAR 00EC
ENCODING 236
SWIDTH 229 0
DWIDTH 11 0
BBX 10 38 -2 0
BITMAP
F800
7C00
3C00
1E00
0F00
0F00
0780
0380
01C0
0000
0000
0000
0000
0000
07C0
07C0
07C0
07C0
07C0
07C0
07C0
07C0
07C0
07C0
07C0
07C0
07C0
07C0
07C0
07C0
07C0
07C0
07C0
07C0
07C0
07C0
07C0
07C0
ENDCHAR
STARTCHAR 00ED
ENCODING 237
SWIDTH 229 0
DWIDTH 11 0
BBX 10 38 2 0
BITMAP
07C0
0780
0F00
1F00
1E00
3C00
3800
7000
F000
0000
0000
0000
0000
0000
7C00
7C00
7C00
7C00
7C00
7C00
7C00
7C00
7C00
7C00
7C00
7C00
7C00
7C00
7C00
7C00
7C00
7C00
7C00
7C00
7C00
7C00
7C00
7C00
ENDCHAR
STARTCHAR 00EE
ENCODING 238
SWIDTH 229 0
DWIDTH 11 0
BBX 14 38 -2 0
BITMAP
0FC0
0FC0
1FE0
1FE0
3CF0
3C78
7838
703C
E01C
0000
0000
0000
0000
0000
07C0
07C0
07C0
07C0
07C0
07C0
07C0
07C0
07C0
07C0
07C0
07C0
07C0
07C0
07C0
07C0
07C0
07C0
07C0
07C0
07C0
07C0
07C0
07C0
ENDCHAR
STARTCHAR 00EF
ENCODING 239
SWIDTH 229 0
DWIDTH 11 0
BBX 14 35 -1 0
BITMAP
F87C
F87C
F87C
F87C
0000
0000
0000
0000
0000
0000
0000
0F80
0F80
0F80
0F80
0F80
0F80
0F80
0F80
0F80
0F80
0F80
0F80
0F80
0F80
0F80
0F80
0F80
0F80
0F80
0F80
0F80
0F80
0F80
0F80
ENDCHAR
STARTCHAR 00F0
ENCODING 240
SWIDTH 583 0
DWIDTH 28 0
BBX 23 35 2 0
BITMAP
1C0060
3F01E0
0F87C0
03FF00
01FC00
03FC00
0FFE00
3E0F80
7807C0
2003E0
0003E0
03FFF0
0FFFF8
1FFFF8
3F01FC
3E00FC
7C007C
7C003E
78003E
F8001E
F8001E
F8001E
F8001E
F8001E
F8001E
F8001E
F8001E
78003E
7C003E
7C007C
3E00FC
3F01F8
1FFFF0
07FFE0
03FF80
ENDCHAR
STARTCHAR 00F1
ENCODING 241
SWIDTH 562 0
DWIDTH 27 0
BBX 21 35 3 0
BITMAP
03C180
07F380
0FFF80
0E7F00
0C1E00
000000
000000
000000
000000
000000
000000
F9FF80
FBFFC0
FFFFE0
FE03F0
FC01F0
F800F8
F800F8
F800F8
F800F8
F800F8
F800F8
F800F8
F800F8
F800F8
F800F8
F800F8
F800F8
F800F8
F800F8
F800F8
F800F8
F800F8
F800F8
F800F8
ENDCHAR
STARTCHAR 00F2
ENCODING 242
SWIDTH 583 0
DWIDTH 28 0
BBX 23 38 2 0
BITMAP
07C000
03E000
01E000
00F000
00F000
007800
003800
001C00
000C00
000000
000000
000000
000000
000000
01FF80
07FFE0
0FFFF0
1F01F8
3E00FC
7C007C
7C003E
78003E
F8001E
F8001E
F8001E
F8001E
F8001E
F8001E
F8001E
F8001E
78003E
7C003E
7C007C
3E00FC
1F01F8
0FFFF0
07FFE0
01FF80
ENDCHAR
STARTCHAR 00F3
ENCODING 243
SWIDTH 583 0
DWIDTH 28 0
BBX 23 38 2 0
BITMAP
0007C0
000780
000F00
000F00
001E00
003C00
003800
007000
007000
000000
000000
000000
000000
000000
01FF80
07FFE0
0FFFF0
1F01F8
3E00FC
7C007C
7C003E
78003E
F8001E
F8001E
F8001E
F8001E
F8001E
F8001E
F8001E
F8001E
78003E
7C003E
7C007C
3E00FC
1F01F8
0FFFF0
07FFE0
01FF80
ENDCHAR
STARTCHAR 00F4
ENCODING 244
SWIDTH 583 0
DWIDTH 28 0
BBX 23 38 2 0
BITMAP
007C00
007E00
00FE00
00FF00
01E780
03C780
0383C0
0701C0
0700E0
000000
000000
000000
000000
000000
01FF80
07FFE0
0FFFF0
1F01F8
3E00FC
7C007C
7C003E
78003E
F8001E
F8001E
F8001E
F8001E
F8001E
F8001E
F8001E
F8001E
78003E
7C003E
7C007C
3E00FC
1F01F8
0FFFF0
07FFE0
01FF80
ENDCHAR
STARTCHAR 00F5
ENCODING 245
SWIDTH 583 0
DWIDTH 28 0
BBX 23 35 2 0
BITMAP
01E0E0
03F9C0
07FFC0
073F80
070F00
000000
000000
000000
000000
000000
000000
01FF80
07FFE0
0FFFF0
1F01F8
3E00FC
7C007C
7C003E
78003E
F8001E
F8001E
F8001E
F8001E
F8001E
F8001E
F8001E
F8001E
78003E
7C003E
7C007C
3E00FC
1F01F8
0FFFF0
07FFE0
01FF80
ENDCHAR
STARTCHAR 00F6
ENCODING 246
SWIDTH 583 0
DWIDTH 28 0
BBX 23 35 2 0
BITMAP
07C3E0
07C3E0
07C3E0
07C3E0
000000
000000
000000
000000
000000
000000
000000
01FF80
07FFE0
0FFFF0
1F01F8
3E00FC
7C007C
7C003E
78003E
F8001E
F8001E
F8001E
F8001E
F8001E
F8001E
F8001E
F8001E
78003E
7C003E
7C007C
3E00FC
1F01F8
0FFFF0
07FFE0
01FF80
ENDCHAR
STARTCHAR 00F7
ENCODING 247
SWIDTH 1020 0
DWIDTH 49 0
BBX 29 21 10 4
BITMAP
000F0000
001F8000
001F8000
001F8000
000F0000
00000000
00000000
00000000
00000000
FFFFFFF8
FFFFFFF8
FFFFFFF8
00000000
00000000
00000000
000F0000
001F8000
001F8000
001F8000
001F8000
000F0000
ENDCHAR
STARTCHAR 00F8
ENCODING 248
SWIDTH 583 0
DWIDTH 28 0
BBX 24 32 2 -4
BITMAP
000006
00000F
00001E
00001C
01FFBC
07FFF8
0FFFF0
1F01F8
3E01FC
7C03FC
7C03BE
7807BE
F80F3E
F81E1E
F81C1E
F83C1E
F8781E
F8F01E
F8F01E
F9E01E
7BC03E
7F803E
7F807C
3F00FC
1F01F8
1FFFF0
3FFFE0
79FF80
F00000
E00000
E00000
400000
ENDCHAR
STARTCHAR 00F9
ENCODING 249
SWIDTH 562 0
DWIDTH 27 0
BBX 21 38 3 0
BITMAP
0F8000
078000
03C000
03C000
01E000
00F000
007000
003800
003800
000000
000000
000000
000000
000000
F800F8
F800F8
F800F8
F800F8
F800F8
F800F8
F800F8
F800F8
F800F8
F800F8
F800F8
F800F8
F800F8
F800F8
F800F8
F800F8
F800F8
F800F8
F800F8
7C01F8
7E03F8
3FFFF8
3FFEF8
0FFCF8
ENDCHAR
STARTCHAR 00FA
ENCODING 250
SWIDTH 562 0
DWIDTH 27 0
BBX 21 38 3 0
BITMAP
000F80
000F00
001E00
003C00
003C00
007800
007000
00E000
00E000
000000
000000
000000
000000
000000
F800F8
F800F8
F800F8
F800F8
F800F8
F800F8
F800F8
F800F8
F800F8
F800F8
F800F8
F800F8
F800F8
F800F8
F800F8
F800F8
F800F8
F800F8
F800F8
7C01F8
7E03F8
3FFFF8
3FFEF8
0FFCF8
ENDCHAR
STARTCHAR 00FB
ENCODING 251
SWIDTH 562 0
DWIDTH 27 0
BBX 21 38 3 0
BITMAP
00F800
01FC00
01FC00
03DE00
03DE00
078F00
070700
0E0380
0E0180
000000
000000
000000
000000
000000
F800F8
F800F8
F800F8
F800F8
F800F8
F800F8
F800F8
F800F8
F800F8
F800F8
F800F8
F800F8
F800F8
F800F8
F800F8
F800F8
F800F8
F800F8
F800F8
7C01F8
7E03F8
3FFFF8
3FFEF8
0FFCF8
ENDCHAR
STARTCHAR 00FC
ENCODING 252
SWIDTH 562 0
DWIDTH 27 0
BBX 21 35 3 0
BITMAP
1F07C0
1F07C0
1F07C0
1F07C0
000000
000000
000000
000000
000000
000000
000000
F800F8
F800F8
F800F8
F800F8
F800F8
F800F8
F800F8
F800F8
F800F8
F800F8
F800F8
F800F8
F800F8
F800F8
F800F8
F800F8
F800F8
F800F8
F800F8
7C01F8
7E03F8
3FFFF8
3FFEF8
0FFCF8
ENDCHAR
STARTCHAR 00FD
ENCODING 253
SWIDTH 541 0
DWIDTH 26 0
BBX 24 48 1 -10
BITMAP
0001E0
0003E0
0007C0
000780
000F00
000E00
001E00
001C00
003800
000000
000000
000000
000000
000000
F8001F
F8001E
7C003E
7C003E
3E003C
3E007C
3E0078
1F00F8
1F00F8
0F80F0
0F81F0
07C1F0
07C3E0
07C3E0
03E3C0
03E7C0
01F7C0
01F780
00FF80
00FF00
00FF00
007F00
007E00
003E00
003C00
007C00
007C00
007800
30F800
F8F800
7FF000
7FE000
3FE000
0F8000
ENDCHAR
STARTCHAR 00FE
ENCODING 254
SWIDTH 583 0
DWIDTH 28 0
BBX 23 45 3 -10
BITMAP
F80000
F80000
F80000
F80000
F80000
F80000
F80000
F80000
F80000
F80000
F80000
F8FF80
FBFFE0
FFFFF0
FF01F8
FE00F8
FC007C
FC007C
F8003C
F8003E
F8003E
F8003E
F8003E
F8003E
F8003E
F8003E
F8003E
F8003E
FC007C
FC007C
FE00F8
FF01F8
FFFFF0
FBFFE0
F8FF80
F80000
F80000
F80000
F80000
F80000
F80000
F80000
F80000
F80000
F80000
ENDCHAR
STARTCHAR 00FF
ENCODING 255
SWIDTH 541 0
DWIDTH 26 0
BBX 24 45 1 -10
BITMAP
07C3E0
07C3E0
07C3E0
07C3E0
000000
000000
000000
000000
000000
000000
000000
F8001F
F8001F
7C003E
7C003E
3E003C
3E007C
1F007C
1F0078
1F00F8
0F80F0
0F81F0
07C1F0
07C1E0
03C3E0
03E3E0
03E3C0
01F7C0
01F780
00FF80
00FF80
007F00
007F00
007E00
003E00
003E00
003C00
007C00
007C00
007800
00F800
00F000
00F000
01F000
01E000
ENDCHAR
STARTCHAR 0131
ENCODING 305
SWIDTH 229 0
DWIDTH 11 0
BBX 5 24 3 0
BITMAP
F8
F8
F8
F8
F8
F8
F8
F8
F8
F8
F8
F8
F8
F8
F8
F8
F8
F8
F8
F8
F8
F8
F8
F8
ENDCHAR
STARTCHAR 0141
ENCODING 321
SWIDTH 583 0
DWIDTH 28 0
BBX 25 35 2 0
BITMAP
07C00000
07C00000
07C00000
07C00000
07C00000
07C00000
07C00000
07C20000
07C60000
07CE0000
07DE0000
07FC0000
07F80000
07F00000
07E00000
07C00000
07C00000
0FC00000
1FC00000
3FC00000
7FC00000
F7C00000
E7C00000
C7C00000
87C00000
07C00000
07C00000
07C00000
07C00000
07C00000
07C00000
07FFFF80
07FFFF80
07FFFF80
07FFFF80
ENDCHAR
STARTCHAR 0142
ENCODING 322
SWIDTH 333 0
DWIDTH 16 0
BBX 13 35 2 0
BITMAP
0F80
0F80
0F80
0F80
0F80
0F80
0F80
0F80
0F88
0F98
0FB8
0FF8
0FF0
0FE0
0FC0
0F80
0F80
1F80
3F80
7F80
FF80
EF80
CF80
8F80
0F80
0F80
0F80
0F80
0F80
0F80
0F80
0F80
0F80
0F80
0F80
ENDCHAR
STARTCHAR 0152
ENCODING 338
SWIDTH 1000 0
DWIDTH 48 0
BBX 43 35 3 1
BITMAP
003FFFFFFFE0
00FFFFFFFFE0
03FFFFFFFFE0
07FFFFFFFFE0
0FE007F00000
0F8001F00000
1F0001F00000
3E0001F00000
3E0001F00000
7C0001F00000
7C0001F00000
780001F00000
F80001F00000
F80001F00000
F80001F00000
F80001FFFFC0
F80001FFFFC0
F80001FFFFC0
F80001FFFFC0
F80001F00000
F80001F00000
F80001F00000
F80001F00000
780001F00000
7C0001F00000
7C0001F00000
3E0001F00000
3E0001F00000
1F0001F00000
0F8003F00000
0FE007F00000
07FFFFFFFFE0
03FFFFFFFFE0
00FFFFFFFFE0
003FFFFFFFE0
ENDCHAR
STARTCHAR 0153
ENCODING 339
SWIDTH 916 0
DWIDTH 44 0
BBX 40 24 2 1
BITMAP
03FF80FFC0
0FFFC1FFF0
1FFFE3FFF8
3F01F7C07C
3E00FF803E
7C00FF001E
7C007E001F
F8007E001F
F8003E001F
F8003FFFFF
F8003FFFFF
F8003FFFFF
F8003E0000
F8003E0000
F8003E0000
F8003E0000
78007E001F
7C007F001F
7C00FF001E
3E00F7803E
3F01E7C07C
1FFFE3FFF8
0FFFC1FFF0
03FF00FFC0
ENDCHAR
STARTCHAR 0160
ENCODING 352
SWIDTH 666 0
DWIDTH 32 0
BBX 26 49 3 0
BITMAP
03807000
03C0E000
01E1E000
00E1C000
00F3C000
007F8000
007F8000
003F0000
003F0000
00000000
00000000
00000000
00000000
00000000
01FFE000
07FFF800
0FFFFC00
1FFFFE00
3E003F00
7C001F00
78000F00
78000F00
F8000000
78000000
78000000
7C000000
7E000000
7F800000
3FF00000
1FFF8000
0FFFF000
03FFFC00
007FFE00
0003FF00
00003F80
00000F80
000007C0
000007C0
F80007C0
F80007C0
F80007C0
F80007C0
7C000780
7C000F80
3F003F00
3FFFFF00
1FFFFE00
0FFFF800
03FFC000
ENDCHAR
STARTCHAR 0161
ENCODING 353
SWIDTH 500 0
DWIDTH 24 0
BBX 19 38 2 0
BITMAP
1C0700
1E0F00
0E0E00
0F1E00
07BC00
07BC00
03F800
03F800
01F000
000000
000000
000000
000000
000000
0FFE00
1FFF80
3FFFC0
7C07C0
7803C0
7803C0
780000
780000
7C0000
7F8000
3FF800
1FFF00
07FFC0
007FE0
0007E0
0003E0
0001E0
F801E0
F801E0
F803E0
7C07E0
7FFFC0
3FFF80
0FFE00
ENDCHAR
STARTCHAR 0178
ENCODING 376
SWIDTH 666 0
DWIDTH 32 0
BBX 30 46 1 0
BITMAP
00F87C00
00F87C00
00F87C00
00F87C00
00F87C00
00000000
00000000
00000000
00000000
00000000
00000000
FC00007C
7C0000F8
7E0001F8
3F0001F0
3F0003F0
1F8003E0
0F8007C0
0FC00FC0
07C00F80
07E01F00
03E01F00
01F03E00
01F83C00
00F87C00
00FCF800
007CF800
003FF000
003FE000
001FE000
000FC000
000F8000
000F8000
000F8000
000F8000
000F8000
000F8000
000F8000
000F8000
000F8000
000F8000
000F8000
000F8000
000F8000
000F8000
000F8000
ENDCHAR
STARTCHAR 017D
ENCODING 381
SWIDTH 604 0
DWIDTH 29 0
BBX 25 49 2 0
BITMAP
0700E000
0380E000
03C1C000
01C3C000
01E78000
00F78000
00FF0000
007F0000
007E0000
00000000
00000000
00000000
00000000
00000000
7FFFFF80
7FFFFF80
7FFFFF80
7FFFFF80
00001F80
00001F80
00003F00
00007E00
0000FC00
0001FC00
0001F800
0003F000
0007E000
000FE000
000FC000
001F8000
003F0000
007F0000
007E0000
00FC0000
01F80000
03F80000
03F00000
07E00000
0FC00000
1FC00000
1F800000
3F000000
7E000000
FE000000
FC000000
FFFFFF80
FFFFFF80
FFFFFF80
FFFFFF80
ENDCHAR
STARTCHAR 017E
ENCODING 382
SWIDTH 458 0
DWIDTH 22 0
BBX 18 38 2 0
BITMAP
700E00
380E00
3C1C00
1C3C00
1E7800
0F7800
0FF000
07F000
07E000
000000
000000
000000
000000
000000
7FFFC0
7FFFC0
7FFFC0
0007C0
000F80
001F80
003F00
003E00
007C00
00FC00
01F800
01F000
03E000
07E000
0FC000
0F8000
1F0000
3F0000
7E0000
7C0000
F80000
FFFFC0
FFFFC0
FFFFC0
ENDCHAR
STARTCHAR 0192
ENCODING 402
SWIDTH 500 0
DWIDTH 24 0
BBX 29 45 -4 -9
BITMAP
000007F8
00000FF8
00001FF0
00003E00
00003C00
00007C00
00007800
00007800
0000F800
0000F000
0000F000
001FFFC0
003FFF80
003FFF80
0001E000
0003E000
0003E000
0003C000
0003C000
0007C000
0007C000
00078000
00078000
000F8000
000F0000
000F0000
000F0000
001F0000
001E0000
001E0000
001E0000
003E0000
003C0000
003C0000
007C0000
00780000
00780000
00780000
00F00000
00F00000
01F00000
43E00000
7FC00000
7F800000
FE000000
ENDCHAR
STARTCHAR 02C6
ENCODING 710
SWIDTH 291 0
DWIDTH 14 0
BBX 14 9 0 29
BITMAP
0FC0
0FC0
1FE0
1FE0
3CF0
38F0
7878
7038
E01C
ENDCHAR
STARTCHAR 02C7
ENCODING 711
SWIDTH 291 0
DWIDTH 14 0
BBX 14 9 0 29
BITMAP
E01C
7038
7038
3870
3CF0
1FE0
1FE0
0FC0
0FC0
ENDCHAR
STARTCHAR 02D8
ENCODING 728
SWIDTH 291 0
DWIDTH 14 0
BBX 13 6 0 29
BITMAP
E018
E038
7878
3FF0
3FE0
0F80
ENDCHAR
STARTCHAR 02D9
ENCODING 729
SWIDTH 104 0
DWIDTH 5 0
BBX 5 5 0 29
BITMAP
F8
F8
F8
F8
F8
ENDCHAR
STARTCHAR 02DA
ENCODING 730
SWIDTH 229 0
DWIDTH 11 0
BBX 11 11 0 29
BITMAP
1F00
3F80
71C0
E0E0
C060
C060
C060
C0E0
71C0
3F80
1F00
ENDCHAR
STARTCHAR 02DB
ENCODING 731
SWIDTH 187 0
DWIDTH 9 0
BBX 8 11 0 -11
BITMAP
1C
18
30
70
60
E0
E0
F0
FF
7F
3F
ENDCHAR
STARTCHAR 02DC
ENCODING 732
SWIDTH 291 0
DWIDTH 14 0
BBX 14 5 0 30
BITMAP
3C1C
7F1C
7FF8
E7F8
E1F0
ENDCHAR
STARTCHAR 02DD
ENCODING 733
SWIDTH 291 0
DWIDTH 14 0
BBX 14 8 0 29
BITMAP
1E3C
1E78
3C78
3870
78E0
70E0
61C0
E180
ENDCHAR
STARTCHAR 0394
ENCODING 916
SWIDTH 645 0
DWIDTH 31 0
BBX 29 34 1 0
BITMAP
00010000
00010000
00030000
00038000
00078000
0007C000
000FC000
000FC000
001FE000
001BE000
003BF000
0031F000
0071F800
0061F800
00E0F800
00C0FC00
00C07C00
01807E00
01803E00
03803E00
03003F00
07001F00
06001F80
0E000F80
0C000FC0
1C000FC0
180007C0
380007E0
300003E0
700003F0
600001F0
FFFFFFF0
FFFFFFF8
FFFFFFF8
ENDCHAR
STARTCHAR 03A9
ENCODING 937
SWIDTH 812 0
DWIDTH 39 0
BBX 35 34 2 0
BITMAP
0007FC0000
003FFFC000
00F803F000
03E000F800
07C0007C00
0F80003E00
1F80003F00
1F00001F00
3F00001F80
3E00000F80
7E00000F80
7E00000FC0
7E00000FC0
7E00000FC0
7E00000FC0
7E00000FC0
7E00000FC0
7E00000FC0
3E00000F80
3F00001F80
3F00001F80
1F00001F00
0F80003E00
0FC0003E00
03E0007C00
01F001F000
807C07C020
800C070020
C00C060020
F00C0601E0
FFFC07FFE0
FFFE07FFE0
FFFE0FFFE0
FFFE0FFFE0
ENDCHAR
STARTCHAR 03BC
ENCODING 956
SWIDTH 625 0
DWIDTH 30 0
BBX 26 33 3 -9
BITMAP
F0007800
F0007800
F0007800
F0007800
F0007800
F0007800
F0007800
F0007800
F0007800
F0007800
F0007800
F0007800
F0007800
F0007800
F0007800
F0007800
F0007800
F000F800
F800F800
F801F800
FC01F800
FF07FC40
FFFF7FC0
FFFE3FC0
F3F81FC0
F0000000
F0000000
F0000000
F0000000
F0000000
F0000000
F0000000
F0000000
ENDCHAR
STARTCHAR 03C0
ENCODING 960
SWIDTH 562 0
DWIDTH 27 0
BBX 26 25 1 -1
BITMAP
0FFFFFC0
1FFFFFC0
3FFFFFC0
7FFFFFC0
61C0E000
C1C0E000
81C0E000
01C0E000
01C0E000
01C1E000
03C1E000
03C1E000
0381E000
0381C000
0381C000
0381C000
0381E000
0781E080
0F81E080
0F01F080
1F01FF80
3F00FF80
3F00FF00
3E007E00
1C003C00
ENDCHAR
STARTCHAR 2013
ENCODING 8211
SWIDTH 500 0
DWIDTH 24 0
BBX 24 3 0 10
BITMAP
FFFFFF
FFFFFF
FFFFFF
ENDCHAR
STARTCHAR 2014
ENCODING 8212
SWIDTH 1000 0
DWIDTH 48 0
BBX 48 3 0 10
BITMAP
FFFFFFFFFFFF
FFFFFFFFFFFF
FFFFFFFFFFFF
ENDCHAR
STARTCHAR 2018
ENCODING 8216
SWIDTH 250 0
DWIDTH 12 0
BBX 8 12 2 23
BITMAP
07
0F
0F
0F
1E
1E
3E
3E
7C
7C
FC
FC
ENDCHAR
STARTCHAR 2019
ENCODING 8217
SWIDTH 250 0
DWIDTH 12 0
BBX 8 12 2 23
BITMAP
1F
3F
3E
3E
3C
7C
7C
78
78
F0
F0
E0
ENDCHAR
STARTCHAR 201A
ENCODING 8218
SWIDTH 250 0
DWIDTH 12 0
BBX 8 12 2 -6
BITMAP
1F
3F
3E
3E
3C
7C
7C
78
78
F0
F0
E0
ENDCHAR
STARTCHAR 201C
ENCODING 8220
SWIDTH 437 0
DWIDTH 21 0
BBX 17 12 2 23
BITMAP
070380
0F0780
0F0780
0F0F00
1E0F00
1E1F00
3E1F00
3E1E00
7C3E00
7C3E00
FC7E00
FC7C00
ENDCHAR
STARTCHAR 201D
ENCODING 8221
SWIDTH 437 0
DWIDTH 21 0
BBX 17 12 2 23
BITMAP
1F1F80
3F1F80
3E1F00
3E1F00
3C3E00
7C3E00
7C3C00
783C00
787800
F07800
F07800
E07000
ENDCHAR
STARTCHAR 201E
ENCODING 8222
SWIDTH 437 0
DWIDTH 21 0
BBX 17 12 2 -6
BITMAP
1F1F80
3F1F80
3E1F00
3E1F00
3C3E00
7C3E00
7C3C00
783C00
787800
F07800
F07800
E07000
ENDCHAR
STARTCHAR 2020
ENCODING 8224
SWIDTH 541 0
DWIDTH 26 0
BBX 22 43 2 -8
BITMAP
007C00
007C00
007C00
007C00
007C00
007C00
007C00
007C00
007C00
007C00
007C00
FFFFFC
FFFFFC
FFFFFC
007C00
007C00
007C00
007C00
007C00
007C00
007C00
007C00
007C00
007C00
007C00
007C00
007C00
007C00
007C00
007C00
007C00
007C00
007C00
007C00
007C00
007C00
007C00
007C00
007C00
007C00
007C00
007C00
007C00
ENDCHAR
STARTCHAR 2021
ENCODING 8225
SWIDTH 541 0
DWIDTH 26 0
BBX 22 43 2 -8
BITMAP
007C00
007C00
007C00
007C00
007C00
007C00
007C00
007C00
007C00
007C00
007C00
FFFFFC
FFFFFC
FFFFFC
007C00
007C00
007C00
007C00
007C00
007C00
007C00
007C00
007C00
007C00
007C00
007C00
007C00
007C00
007C00
FFFFFC
FFFFFC
FFFFFC
007C00
007C00
007C00
007C00
007C00
007C00
007C00
007C00
007C00
007C00
007C00
ENDCHAR
STARTCHAR 2022
ENCODING 8226
SWIDTH 312 0
DWIDTH 15 0
BBX 11 11 2 11
BITMAP
1F00
3F80
7FC0
FFE0
FFE0
FFE0
FFE0
FFE0
7FC0
3F80
1F00
ENDCHAR
STARTCHAR 2026
ENCODING 8230
SWIDTH 979 0
DWIDTH 47 0
BBX 43 6 2 0
BITMAP
F8001F0003E0
F8001F0003E0
F8001F0003E0
F8001F0003E0
F8001F0003E0
F8001F0003E0
ENDCHAR
STARTCHAR 2030
ENCODING 8240
SWIDTH 1312 0
DWIDTH 63 0
BBX 59 36 2 0
BITMAP
0000000700000000
03F0000E00000000
1FFC001E00000000
3FFE001C00000000
7E1F003C00000000
7C0F803800000000
F80F807000000000
F807807000000000
F80780E000000000
F80780E000000000
F80781C000000000
F80783C000000000
F807838000000000
F80F870000000000
780F870000000000
7E1F0E0000000000
3FFE0E0000000000
1FFC1C0FC001F800
07F03C3FF007FE00
0000387FFC0FFF80
000078F87C1F0F80
000071F03E3E07C0
0000E1F01E3E03C0
0000E1E01F3C03E0
0001C1E01F3C03E0
0001C1E01F3C03E0
000383E01F7C03E0
000781E01F3C03E0
000701E01F3C03E0
000F01E01F3C03E0
000E01F01E3E03C0
001C01F03E3E07C0
001C00F87C1F0F80
0038007FFC0FFF80
0038003FF007FE00
0070000FC001F800
ENDCHAR
STARTCHAR 2039
ENCODING 8249
SWIDTH 354 0
DWIDTH 17 0
BBX 10 19 4 3
BITMAP
03C0
0780
0F00
0F00
1E00
3E00
3C00
7800
F800
F000
F800
7800
3C00
3E00
1E00
0F00
0F00
0780
03C0
ENDCHAR
STARTCHAR 203A
ENCODING 8250
SWIDTH 354 0
DWIDTH 17 0
BBX 10 19 4 3
BITMAP
F000
F000
7800
3C00
3C00
1E00
1F00
0F00
0780
07C0
0780
0F80
1F00
1E00
3C00
3C00
7800
F000
F000
ENDCHAR
STARTCHAR 2044
ENCODING 8260
SWIDTH 562 0
DWIDTH 27 0
BBX 23 37 2 -1
BITMAP
00000E
00001E
00001C
00003C
000038
000078
000070
0000E0
0001E0
0001C0
0003C0
000380
000780
000700
000E00
000E00
001C00
003C00
003800
007800
007000
00F000
00E000
01C000
01C000
038000
078000
070000
0F0000
0E0000
1C0000
1C0000
380000
780000
700000
F00000
E00000
ENDCHAR
STARTCHAR 2122
ENCODING 8482
SWIDTH 666 0
DWIDTH 32 0
BBX 26 13 3 21
BITMAP
FFC701C0
FFC783C0
0C0783C0
0C0783C0
0C06C6C0
0C06C6C0
0C06C6C0
0C066CC0
0C066CC0
0C066CC0
0C0638C0
0C0638C0
0C0638C0
ENDCHAR
STARTCHAR 2202
ENCODING 8706
SWIDTH 562 0
DWIDTH 27 0
BBX 22 38 3 -1
BITMAP
0FF000
3FFE00
1C0F00
100380
0001C0
0000E0
0000E0
000070
000070
000078
000038
000038
000038
00003C
00003C
00003C
00003C
01F83C
07FE3C
1F833C
3F00FC
3E00FC
7C0078
780078
F80078
F80078
F000F8
F000F0
F000F0
F000F0
F001E0
F001E0
F003C0
7803C0
380780
1C0F00
0FFE00
03F800
ENDCHAR
STARTCHAR 220F
ENCODING 8719
SWIDTH 854 0
DWIDTH 41 0
BBX 39 42 1 -5
BITMAP
FFFFFFFFFE
1FFFFFFFF0
0FFFFFFFE0
0FE0000FE0
07E0000FC0
07E0000FC0
07E0000FC0
07E0000FC0
07E0000FC0
07E0000FC0
07E0000FC0
07E0000FC0
07E0000FC0
07E0000FC0
07E0000FC0
07E0000FC0
07E0000FC0
07E0000FC0
07E0000FC0
07E0000FC0
07E0000FC0
07E0000FC0
07E0000FC0
07E0000FC0
07E0000FC0
07E0000FC0
07E0000FC0
07E0000FC0
07E0000FC0
07E0000FC0
07E0000FC0
07E0000FC0
07E0000FC0
07E0000FC0
07E0000FC0
07E0000FC0
07E0000FC0
07E0000FC0
07E0000FC0
0FE0000FE0
1FF8003FF0
FFFE00FFFE
ENDCHAR
STARTCHAR 2211
ENCODING 8721
SWIDTH 750 0
DWIDTH 36 0
BBX 33 42 1 -5
BITMAP
FFFFFFFC00
7FFFFFFC00
3F8000FC00
1F80001C00
1FC0000C00
0FE0000400
07F0000400
03F0000600
01F8000000
01FC000000
00FE000000
007E000000
003F000000
003F800000
001FC00000
000FC00000
0007E00000
0007F00000
0003F80000
0001FC0000
0000F80000
0000F00000
0000700000
0000E00000
0001C00000
0003800000
0007000000
000E000000
001C000000
001C000000
0038000000
0070000080
00E0000080
01C0000180
0380000180
0700000300
0F00000F00
0FFFFFFF00
1FFFFFFF00
3FFFFFFF00
7FFFFFFF00
FFFFFFFE00
ENDCHAR
STARTCHAR 2212
ENCODING 8722
SWIDTH 1000 0
DWIDTH 48 0
BBX 29 3 10 13
BITMAP
FFFFFFF8
FFFFFFF8
FFFFFFF8
ENDCHAR
STARTCHAR 221A
ENCODING 8730
SWIDTH 583 0
DWIDTH 28 0
BBX 27 33 1 0
BITMAP
000003E0
00000300
00000300
00000300
00000600
00000600
00000600
00000400
00000C00
00000C00
0C000C00
3C001800
FE001800
CE001800
07001800
07003000
03803000
03803000
01C02000
01C06000
00E06000
00E06000
0070C000
0078C000
0038C000
003CC000
001D8000
001F8000
000F8000
000F8000
00070000
00070000
00030000
ENDCHAR
STARTCHAR 221E
ENCODING 8734
SWIDTH 1000 0
DWIDTH 48 0
BBX 32 13 8 8
BITMAP
0F8001F0
1FE007F8
3FF81FFC
703C3C0E
E00E7007
E007E007
C003C003
C003C007
E007E007
601E7806
787C1E1E
3FF00FFC
0FC003F0
ENDCHAR
STARTCHAR 222B
ENCODING 8747
SWIDTH 479 0
DWIDTH 23 0
BBX 20 45 1 -9
BITMAP
0003E0
000FF0
001FF0
003BF0
0038E0
003800
007800
007800
007000
007000
007000
007000
007000
007000
007000
007000
00F000
00F000
00F000
00F000
00F000
00F000
00F000
00F000
00F000
00F000
00F000
00F000
00F000
00F000
00F000
00F000
00F000
00E000
00E000
00E000
00E000
00E000
01E000
01C000
71C000
F9C000
FF8000
FF0000
7E0000
ENDCHAR
STARTCHAR 2248
ENCODING 8776
SWIDTH 1000 0
DWIDTH 48 0
BBX 28 15 10 6
BITMAP
0FE00010
3FFC0030
7FFF80F0
F03FFFF0
C003FFC0
80007F00
00000000
00000000
00000010
1FF00010
7FFE0070
FFFFC0F0
F01FFFF0
C003FFC0
80007F00
ENDCHAR
STARTCHAR 2260
ENCODING 8800
SWIDTH 1000 0
DWIDTH 48 0
BBX 29 21 10 4
BITMAP
00000100
00000380
00000780
00000F00
00001E00
FFFFFFF8
FFFFFFF8
FFFFFFF8
0001E000
00038000
000F0000
001E0000
003C0000
FFFFFFF8
FFFFFFF8
FFFFFFF8
03C00000
07800000
0F000000
1E000000
0C000000
ENDCHAR
STARTCHAR 2264
ENCODING 8804
SWIDTH 1000 0
DWIDTH 48 0
BBX 29 27 10 0
BITMAP
00000008
00000078
000007F8
00003FF0
0001FF00
000FF800
007F8000
03FC0000
3FE00000
FE000000
F0000000
F8000000
7F800000
0FF00000
01FF0000
003FE000
0007FC00
00007FC0
00000FF8
000001F8
00000038
00000000
00000000
00000000
FFFFFFF8
FFFFFFF8
FFFFFFF8
ENDCHAR
STARTCHAR 2265
ENCODING 8805
SWIDTH 1000 0
DWIDTH 48 0
BBX 29 27 10 0
BITMAP
80000000
F0000000
FE000000
7FC00000
07FC0000
00FF8000
001FF000
0001FE00
00003FC0
000007F8
00000078
000001F8
00000FF0
00007F80
0007FC00
003FE000
03FE0000
1FF00000
FF800000
FC000000
E0000000
00000000
00000000
00000000
FFFFFFF8
FFFFFFF8
FFFFFFF8
ENDCHAR
STARTCHAR 25CA
ENCODING 9674
SWIDTH 541 0
DWIDTH 26 0
BBX 22 37 2 0
BITMAP
007800
00F800
00FC00
01DC00
01CE00
038E00
038700
070300
070380
0E01C0
0E01C0
1C00E0
1C00E0
380070
380070
700038
700038
E0001C
E0001C
E00038
700038
700070
380070
3800E0
1C00E0
1C01C0
0E01C0
0E0380
070380
030700
038700
018E00
01CE00
00DC00
00FC00
007800
007800
ENDCHAR
STARTCHAR FB01
ENCODING 64257
SWIDTH 583 0
DWIDTH 28 0
BBX 24 35 1 1
BITMAP
01FE1F
03FE1F
07FE1F
07C01F
078000
078000
0F8000
0F8000
0F8000
0F8000
0F8000
FFFE1F
FFFE1F
FFFE1F
0F801F
0F801F
0F801F
0F801F
0F801F
0F801F
0F801F
0F801F
0F801F
0F801F
0F801F
0F801F
0F801F
0F801F
0F801F
0F801F
0F801F
0F801F
0F801F
0F801F
0F801F
ENDCHAR
STARTCHAR FB02
ENCODING 64258
SWIDTH 583 0
DWIDTH 28 0
BBX 24 35 1 1
BITMAP
01FE1F
03FE1F
07FE1F
07C01F
07801F
07801F
0F801F
0F801F
0F801F
0F801F
0F801F
FFFE1F
FFFE1F
FFFE1F
0F801F
0F801F
0F801F
0F801F
0F801F
0F801F
0F801F
0F801F
0F801F
0F801F
0F801F
0F801F
0F801F
0F801F
0F801F
0F801F
0F801F
0F801F
0F801F
0F801F
0F801F
ENDCHAR
ENDFONT
